<?xml version="1.0" standalone="no"?>
<svg x="0" y="0" width="1600" height="900" viewBox="-10 -10 1620 920" version="1.1" xmlns="http://www.w3.org/2000/svg">

	<!-- def.svg -->
	<defs>
<g id="base-kw">
	<g stroke="black" stroke-width="3" fill="none" >
		<path d="M 200 300 l 100 0" stroke-dasharray="0" />
	</g>
	<g stroke="black" stroke-width="3" >
		<circle cx="200" cy="300" r="25" fill="black" />
		<circle cx="300" cy="300" r="25" fill="white" />
	</g>
</g>
<g id="kw">
	<use xmlns:xlink="http://www.w3.org/1999/xlink" xlink:href="#base-kw" x="-250" y="-300" fill="purple"/>
</g>
<g id="base-kwg">
	<g stroke="black" stroke-width="3" fill="none" >
		<path d="M 200 300 l 100 0" stroke-dasharray="0" />
		<path d="M 300 300 l 100 0" stroke-dasharray="0" />
	</g>
	<g stroke="black" stroke-width="3" >
		<circle cx="200" cy="300" r="25" fill="black" />
		<circle cx="300" cy="300" r="25" fill="white" />
		<circle cx="400" cy="300" r="25" fill="lime" />
	</g>
</g>
<g id="kwg">
	<use xmlns:xlink="http://www.w3.org/1999/xlink" xlink:href="#base-kwg" x="-300" y="-300" fill="purple"/>
</g>
<g id="base-kwy">
	<g stroke="black" stroke-width="3" fill="none" >
		<path d="M 200 300 l 100 0" stroke-dasharray="0" />
		<path d="M 300 300 l 100 0" stroke-dasharray="0" />
	</g>
	<g stroke="black" stroke-width="3" >
		<circle cx="200" cy="300" r="25" fill="black" />
		<circle cx="300" cy="300" r="25" fill="white" />
		<circle cx="400" cy="300" r="25" fill="yellow" />
	</g>
</g>
<g id="kwy">
	<use xmlns:xlink="http://www.w3.org/1999/xlink" xlink:href="#base-kwy" x="-300" y="-300" fill="purple"/>
</g>
<g id="base-kwgk">
	<g stroke="black" stroke-width="3" fill="none" >
		<path d="M 200 300 l 100 0" stroke-dasharray="0" />
		<path d="M 300 300 l 100 0" stroke-dasharray="0" />
		<path d="M 400 300 l 100 0" stroke-dasharray="0" />
	</g>
	<g stroke="black" stroke-width="3" >
		<circle cx="200" cy="300" r="25" fill="black" />
		<circle cx="300" cy="300" r="25" fill="white" />
		<circle cx="400" cy="300" r="25" fill="lime" />
		<circle cx="500" cy="300" r="25" fill="black" />
	</g>
</g>
<g id="kwgk">
	<use xmlns:xlink="http://www.w3.org/1999/xlink" xlink:href="#base-kwgk" x="-350" y="-300" fill="purple"/>
</g>
<g id="base-kwgy">
	<g stroke="black" stroke-width="3" fill="none" >
		<path d="M 200 300 l 100 0" stroke-dasharray="0" />
		<path d="M 300 300 l 100 0" stroke-dasharray="0" />
		<path d="M 400 300 l 100 0" stroke-dasharray="0" />
	</g>
	<g stroke="black" stroke-width="3" >
		<circle cx="200" cy="300" r="25" fill="black" />
		<circle cx="300" cy="300" r="25" fill="white" />
		<circle cx="400" cy="300" r="25" fill="lime" />
		<circle cx="500" cy="300" r="25" fill="yellow" />
	</g>
</g>
<g id="kwgy">
	<use xmlns:xlink="http://www.w3.org/1999/xlink" xlink:href="#base-kwgy" x="-350" y="-300" fill="purple"/>
</g>
<g id="base-kwk">
	<g stroke="black" stroke-width="3" fill="none" >
		<path d="M 200 300 l 100 0" stroke-dasharray="0" />
		<path d="M 300 300 l 100 0" stroke-dasharray="0" />
	</g>
	<g stroke="black" stroke-width="3" >
		<circle cx="200" cy="300" r="25" fill="black" />
		<circle cx="300" cy="300" r="25" fill="white" />
		<circle cx="400" cy="300" r="25" fill="black" />
	</g>
</g>
<g id="kwk">
	<use xmlns:xlink="http://www.w3.org/1999/xlink" xlink:href="#base-kwk" x="-300" y="-300" fill="purple"/>
</g>
<g id="base-kg">
	<g stroke="black" stroke-width="3" fill="none" >
		<path d="M 200 300 l 100 0" stroke-dasharray="0" />
	</g>
	<g stroke="black" stroke-width="3" >
		<circle cx="200" cy="300" r="25" fill="black" />
		<circle cx="300" cy="300" r="25" fill="lime" />
	</g>
</g>
<g id="kg">
	<use xmlns:xlink="http://www.w3.org/1999/xlink" xlink:href="#base-kg" x="-250" y="-300" fill="purple"/>
</g>
<g id="base-kgw">
	<g stroke="black" stroke-width="3" fill="none" >
		<path d="M 200 300 l 100 0" stroke-dasharray="0" />
		<path d="M 300 300 l 100 0" stroke-dasharray="0" />
	</g>
	<g stroke="black" stroke-width="3" >
		<circle cx="200" cy="300" r="25" fill="black" />
		<circle cx="300" cy="300" r="25" fill="lime" />
		<circle cx="400" cy="300" r="25" fill="white" />
	</g>
</g>
<g id="kgw">
	<use xmlns:xlink="http://www.w3.org/1999/xlink" xlink:href="#base-kgw" x="-300" y="-300" fill="purple"/>
</g>
<g id="base-kgy">
	<g stroke="black" stroke-width="3" fill="none" >
		<path d="M 200 300 l 100 0" stroke-dasharray="0" />
		<path d="M 300 300 l 100 0" stroke-dasharray="0" />
	</g>
	<g stroke="black" stroke-width="3" >
		<circle cx="200" cy="300" r="25" fill="black" />
		<circle cx="300" cy="300" r="25" fill="lime" />
		<circle cx="400" cy="300" r="25" fill="yellow" />
	</g>
</g>
<g id="kgy">
	<use xmlns:xlink="http://www.w3.org/1999/xlink" xlink:href="#base-kgy" x="-300" y="-300" fill="purple"/>
</g>
<g id="base-wg">
	<g stroke="black" stroke-width="3" fill="none" >
		<path d="M 200 300 l 100 0" stroke-dasharray="0" />
	</g>
	<g stroke="black" stroke-width="3" >
		<circle cx="200" cy="300" r="25" fill="white" />
		<circle cx="300" cy="300" r="25" fill="lime" />
	</g>
</g>
<g id="wg">
	<use xmlns:xlink="http://www.w3.org/1999/xlink" xlink:href="#base-wg" x="-250" y="-300" fill="purple"/>
</g>
<g id="base-wgk">
	<g stroke="black" stroke-width="3" fill="none" >
		<path d="M 200 300 l 100 0" stroke-dasharray="0" />
		<path d="M 300 300 l 100 0" stroke-dasharray="0" />
	</g>
	<g stroke="black" stroke-width="3" >
		<circle cx="200" cy="300" r="25" fill="white" />
		<circle cx="300" cy="300" r="25" fill="lime" />
		<circle cx="400" cy="300" r="25" fill="black" />
	</g>
</g>
<g id="wgk">
	<use xmlns:xlink="http://www.w3.org/1999/xlink" xlink:href="#base-wgk" x="-300" y="-300" fill="purple"/>
</g>
<g id="base-wgy">
	<g stroke="black" stroke-width="3" fill="none" >
		<path d="M 200 300 l 100 0" stroke-dasharray="0" />
		<path d="M 300 300 l 100 0" stroke-dasharray="0" />
	</g>
	<g stroke="black" stroke-width="3" >
		<circle cx="200" cy="300" r="25" fill="white" />
		<circle cx="300" cy="300" r="25" fill="lime" />
		<circle cx="400" cy="300" r="25" fill="yellow" />
	</g>
</g>
<g id="wgy">
	<use xmlns:xlink="http://www.w3.org/1999/xlink" xlink:href="#base-wgy" x="-300" y="-300" fill="purple"/>
</g>
<g id="base-g10">
	<g stroke="black" stroke-width="3" fill="none" >
		<path d="M 200 300 l 100 0" stroke-dasharray="0" />
		<path d="M 300 300 l 100 0" stroke-dasharray="0" />
		<path d="M 300 300 l 0 100" stroke-dasharray="0" />
	</g>
	<g stroke="black" stroke-width="3" >
		<circle cx="200" cy="300" r="25" fill="black" />
		<circle cx="300" cy="300" r="25" fill="lime" />
		<circle cx="400" cy="300" r="25" fill="white" />
		<circle cx="300" cy="400" r="25" fill="yellow" />
	</g>
</g>
<g id="g10">
	<use xmlns:xlink="http://www.w3.org/1999/xlink" xlink:href="#base-g10" x="-300" y="-300" fill="purple"/>
</g>
	</defs>
	<!-- def.svg end -->

<g stroke="black" stroke-width="3" >
		<path d="M 800 10 L 400 80"  />
		<path d="M 400 220 L 250 350"  />
		<path d="M 250 490 L 200 650"  />
		<path d="M 200 790 L 150 900" stroke-dasharray="9" />
		<path d="M 250 490 L 650 650"  />
		<path d="M 650 790 L 550 900" stroke-dasharray="9" />
		<path d="M 650 790 L 750 900" stroke-dasharray="9" />
		<path d="M 400 220 L 600 350"  />
		<path d="M 800 10 L 1200 80"  />
		<path d="M 1200 220 L 1000 350"  />
		<path d="M 1000 490 L 1100 600"  />
		<path d="M 1100 800 L 1100 900" stroke-dasharray="9" />
		<path d="M 1200 220 L 1400 350"  />
		<path d="M 1400 490 L 1350 600" stroke-dasharray="9" />
		<path d="M 1400 490 L 1500 600" stroke-dasharray="9" />
</g>
	<use xmlns:xlink="http://www.w3.org/1999/xlink" xlink:href="#kw" x="400" y="130" />
	<use xmlns:xlink="http://www.w3.org/1999/xlink" xlink:href="#kwg" x="250" y="400" />
	<use xmlns:xlink="http://www.w3.org/1999/xlink" xlink:href="#kwgk" x="200" y="700" />
	<use xmlns:xlink="http://www.w3.org/1999/xlink" xlink:href="#kwgy" x="650" y="700" />
	<use xmlns:xlink="http://www.w3.org/1999/xlink" xlink:href="#kwy" x="600" y="400" />
	<use xmlns:xlink="http://www.w3.org/1999/xlink" xlink:href="#kg" x="1200" y="130" />
	<use xmlns:xlink="http://www.w3.org/1999/xlink" xlink:href="#kgw" x="1000" y="400" />
	<use xmlns:xlink="http://www.w3.org/1999/xlink" xlink:href="#g10" x="1100" y="650" />
	<use xmlns:xlink="http://www.w3.org/1999/xlink" xlink:href="#kgy" x="1400" y="400" />


</svg>
