<?xml version="1.0" encoding="utf-8"?>
<!-- Generator: Adobe Illustrator 19.2.1, SVG Export Plug-In . SVG Version: 6.00 Build 0)  -->
<svg version="1.1" id="レイヤー_1" xmlns="http://www.w3.org/2000/svg" xmlns:xlink="http://www.w3.org/1999/xlink" x="0px"
	 y="0px" viewBox="0 0 452.8 183.3" style="enable-background:new 0 0 452.8 183.3;" xml:space="preserve">
<style type="text/css">
	.st0{clip-path:url(#SVGID_2_);}
	.st1{opacity:0.259;clip-path:url(#SVGID_4_);fill:#FFFC79;}
	.st2{clip-path:url(#SVGID_6_);}
	.st3{clip-path:url(#SVGID_8_);fill:none;stroke:#000000;stroke-width:0.7751;}
	.st4{clip-path:url(#SVGID_10_);}
	.st5{clip-path:url(#SVGID_12_);fill:none;stroke:#000000;stroke-width:1.5501;stroke-dasharray:3.1003,3.1003;}
	.st6{clip-path:url(#SVGID_14_);}
	.st7{clip-path:url(#SVGID_16_);fill:none;stroke:#000000;stroke-width:1.5501;}
	.st8{clip-path:url(#SVGID_18_);}
	.st9{clip-path:url(#SVGID_20_);fill:none;stroke:#000000;stroke-width:1.5501;stroke-dasharray:3.1003,3.1003;}
	.st10{clip-path:url(#SVGID_22_);}
	.st11{clip-path:url(#SVGID_24_);fill:none;stroke:#000000;stroke-width:1.5501;}
	.st12{font-family:'ArialMT';}
	.st13{font-size:18.5938px;}
	.st14{clip-path:url(#SVGID_26_);fill:none;stroke:#000000;stroke-width:0.5092;stroke-miterlimit:10;}
	.st15{clip-path:url(#SVGID_26_);fill:#F0047F;}
	.st16{clip-path:url(#SVGID_26_);fill:none;stroke:#050404;stroke-width:0.6793;stroke-linejoin:bevel;stroke-miterlimit:10;}
	.st17{clip-path:url(#SVGID_26_);fill:#C2BFB9;}
	.st18{clip-path:url(#SVGID_26_);fill:#00A0C6;}
	.st19{clip-path:url(#SVGID_26_);fill:#FFFF00;}
	.st20{clip-path:url(#SVGID_28_);fill:none;stroke:#050404;stroke-width:0.6819;stroke-linejoin:bevel;stroke-miterlimit:10;}
	.st21{clip-path:url(#SVGID_28_);fill:#C2BFB9;}
	.st22{clip-path:url(#SVGID_28_);fill:#B3B3B3;}
	.st23{clip-path:url(#SVGID_28_);fill:#FFFF00;}
	.st24{clip-path:url(#SVGID_28_);fill:#41AA54;}
	.st25{clip-path:url(#SVGID_30_);fill:none;stroke:#050404;stroke-width:0.6796;stroke-linejoin:bevel;stroke-miterlimit:10;}
	.st26{clip-path:url(#SVGID_30_);fill:#B3B3B3;}
	.st27{clip-path:url(#SVGID_30_);fill:#00A0C6;}
	.st28{clip-path:url(#SVGID_30_);fill:#FFFF00;}
	.st29{clip-path:url(#SVGID_30_);fill:#41AA54;}
	.st30{clip-path:url(#SVGID_32_);fill:none;stroke:#000000;stroke-width:0.4742;stroke-miterlimit:10;}
	.st31{clip-path:url(#SVGID_32_);fill:none;stroke:#050404;stroke-width:0.6326;stroke-linejoin:bevel;stroke-miterlimit:10;}
	.st32{clip-path:url(#SVGID_32_);fill:#C2BFB9;}
	.st33{clip-path:url(#SVGID_32_);fill:#4FA0CA;}
	.st34{clip-path:url(#SVGID_32_);fill:#00A0C6;}
	.st35{clip-path:url(#SVGID_32_);fill:#FFFF00;}
	.st36{clip-path:url(#SVGID_32_);fill:#41AA54;}
	.st37{font-family:'TimesNewRomanPS-BoldMT';}
	.st38{font-size:27.1159px;}
	.st39{clip-path:url(#SVGID_34_);}
	.st40{clip-path:url(#SVGID_38_);}
	.st41{clip-path:url(#SVGID_42_);}
	.st42{clip-path:url(#SVGID_46_);}
	.st43{clip-path:url(#SVGID_50_);}
	.st44{clip-path:url(#SVGID_54_);}
	.st45{clip-path:url(#SVGID_58_);}
	.st46{clip-path:url(#SVGID_62_);}
</style>
<g>
	<defs>
		<rect id="SVGID_1_" width="452.8" height="183.3"/>
	</defs>
	<clipPath id="SVGID_2_">
		<use xlink:href="#SVGID_1_"  style="overflow:visible;"/>
	</clipPath>
	<g class="st0">
		<defs>
			<rect id="SVGID_3_" x="-59.7" y="-40.4" width="794" height="595"/>
		</defs>
		<clipPath id="SVGID_4_">
			<use xlink:href="#SVGID_3_"  style="overflow:visible;"/>
		</clipPath>
		<rect x="0.8" y="0.8" class="st1" width="95.9" height="31"/>
		<rect x="96.7" y="0.8" class="st1" width="95.9" height="31"/>
		<rect x="192.5" y="0.8" class="st1" width="95.9" height="31"/>
		<rect x="288.4" y="0.8" class="st1" width="67.7" height="31"/>
		<rect x="356.1" y="0.8" class="st1" width="95.9" height="31"/>
		<rect x="0.8" y="62.8" class="st1" width="95.9" height="31"/>
		<rect x="96.7" y="62.8" class="st1" width="95.9" height="31"/>
		<rect x="192.5" y="62.8" class="st1" width="95.9" height="31"/>
		<rect x="288.4" y="62.8" class="st1" width="67.7" height="31"/>
		<rect x="356.1" y="62.8" class="st1" width="95.9" height="31"/>
	</g>
</g>
<g>
	<defs>
		<rect id="SVGID_5_" width="452.8" height="183.3"/>
	</defs>
	<clipPath id="SVGID_6_">
		<use xlink:href="#SVGID_5_"  style="overflow:visible;"/>
	</clipPath>
	<g class="st2">
		<defs>
			<rect id="SVGID_7_" x="-59.7" y="-40.4" width="794" height="595"/>
		</defs>
		<clipPath id="SVGID_8_">
			<use xlink:href="#SVGID_7_"  style="overflow:visible;"/>
		</clipPath>
		<line class="st3" x1="96.7" y1="0.3" x2="96.7" y2="183"/>
		<line class="st3" x1="192.5" y1="0.3" x2="192.5" y2="183"/>
		<line class="st3" x1="288.4" y1="0.3" x2="288.4" y2="183"/>
		<line class="st3" x1="356.1" y1="0.3" x2="356.1" y2="183"/>
	</g>
</g>
<g>
	<defs>
		<rect id="SVGID_9_" width="452.8" height="183.3"/>
	</defs>
	<clipPath id="SVGID_10_">
		<use xlink:href="#SVGID_9_"  style="overflow:visible;"/>
	</clipPath>
	<g class="st4">
		<defs>
			<rect id="SVGID_11_" x="0.3" y="31" width="452.2" height="1.5"/>
		</defs>
		<clipPath id="SVGID_12_">
			<use xlink:href="#SVGID_11_"  style="overflow:visible;"/>
		</clipPath>
		<line class="st5" x1="0" y1="31.8" x2="452.5" y2="31.8"/>
	</g>
</g>
<g>
	<defs>
		<rect id="SVGID_13_" width="452.8" height="183.3"/>
	</defs>
	<clipPath id="SVGID_14_">
		<use xlink:href="#SVGID_13_"  style="overflow:visible;"/>
	</clipPath>
	<g class="st6">
		<defs>
			<rect id="SVGID_15_" x="-59.7" y="-40.4" width="794" height="595"/>
		</defs>
		<clipPath id="SVGID_16_">
			<use xlink:href="#SVGID_15_"  style="overflow:visible;"/>
		</clipPath>
		<line class="st7" x1="0.3" y1="62.8" x2="452.5" y2="62.8"/>
	</g>
</g>
<g>
	<defs>
		<rect id="SVGID_17_" width="452.8" height="183.3"/>
	</defs>
	<clipPath id="SVGID_18_">
		<use xlink:href="#SVGID_17_"  style="overflow:visible;"/>
	</clipPath>
	<g class="st8">
		<defs>
			<rect id="SVGID_19_" x="0.3" y="93" width="452.2" height="1.5"/>
		</defs>
		<clipPath id="SVGID_20_">
			<use xlink:href="#SVGID_19_"  style="overflow:visible;"/>
		</clipPath>
		<line class="st9" x1="0" y1="93.7" x2="452.5" y2="93.7"/>
	</g>
</g>
<g>
	<defs>
		<rect id="SVGID_21_" width="452.8" height="183.3"/>
	</defs>
	<clipPath id="SVGID_22_">
		<use xlink:href="#SVGID_21_"  style="overflow:visible;"/>
	</clipPath>
	<g class="st10">
		<defs>
			<rect id="SVGID_23_" x="-59.7" y="-40.4" width="794" height="595"/>
		</defs>
		<clipPath id="SVGID_24_">
			<use xlink:href="#SVGID_23_"  style="overflow:visible;"/>
		</clipPath>
		<line class="st11" x1="0.8" y1="0.3" x2="0.8" y2="183"/>
		<line class="st11" x1="452" y1="0.3" x2="452" y2="183"/>
		<line class="st11" x1="0.3" y1="0.8" x2="452.5" y2="0.8"/>
		<line class="st11" x1="0.3" y1="182.5" x2="452.5" y2="182.5"/>
	</g>
</g>
<text transform="matrix(1.0008 0 0 1 36.3126 54.6139)" class="st12 st13">0.1</text>
<text transform="matrix(1.0008 0 0 1 134.3126 54.6139)" class="st12 st13">0.7</text>
<text transform="matrix(1.0008 0 0 1 232.3126 54.6139)" class="st12 st13">1.2</text>
<text transform="matrix(1.0008 0 0 1 389.3126 54.6139)" class="st12 st13">0.9</text>
<g>
	<defs>
		<rect id="SVGID_25_" x="10.3" y="103" width="76.9" height="69.2"/>
	</defs>
	<clipPath id="SVGID_26_">
		<use xlink:href="#SVGID_25_"  style="overflow:visible;"/>
	</clipPath>
	<line class="st14" x1="73.9" y1="157.7" x2="84.6" y2="154.6"/>
	<line class="st14" x1="61.4" y1="115.5" x2="65.4" y2="105.4"/>
	<line class="st14" x1="49.9" y1="144.7" x2="54.4" y2="133.9"/>
	<line class="st14" x1="49.9" y1="144.7" x2="57.1" y2="152.9"/>
	<line class="st14" x1="49.9" y1="144.7" x2="37.9" y2="144.2"/>
	<line class="st14" x1="37.9" y1="144.2" x2="30.1" y2="153.3"/>
	<path class="st15" d="M86.9,154.6c0,1.3-1,2.3-2.3,2.3c-1.3,0-2.3-1-2.3-2.3s1-2.3,2.3-2.3C85.8,152.2,86.9,153.3,86.9,154.6"/>
	<ellipse class="st16" cx="84.6" cy="154.6" rx="2.3" ry="2.3"/>
	<line class="st16" x1="20.6" y1="150.2" x2="13.1" y2="156.8"/>
	<line class="st16" x1="20.6" y1="150.2" x2="30.1" y2="153.3"/>
	<line class="st16" x1="13.1" y1="156.8" x2="15.2" y2="166.6"/>
	<line class="st16" x1="15.2" y1="166.6" x2="24.7" y2="169.7"/>
	<line class="st16" x1="24.7" y1="169.7" x2="32.1" y2="163"/>
	<line class="st16" x1="32.1" y1="163" x2="30.1" y2="153.3"/>
	<path class="st17" d="M23,149.9c0.3,1.3-0.5,2.5-1.8,2.8c-1.3,0.3-2.5-0.5-2.8-1.8c-0.3-1.3,0.5-2.5,1.8-2.8
		C21.5,147.8,22.7,148.6,23,149.9"/>
	<ellipse transform="matrix(0.9784 -0.2066 0.2066 0.9784 -30.6209 7.5207)" class="st16" cx="20.7" cy="150.4" rx="2.3" ry="2.3"/>
	<path class="st17" d="M15.3,156.4c0.3,1.3-0.5,2.5-1.8,2.8c-1.3,0.3-2.5-0.5-2.8-1.8c-0.3-1.3,0.5-2.5,1.8-2.8
		C13.8,154.3,15,155.2,15.3,156.4"/>
	<ellipse transform="matrix(0.9784 -0.2066 0.2066 0.9784 -32.1311 6.0735)" class="st16" cx="13" cy="156.9" rx="2.3" ry="2.3"/>
	<path class="st17" d="M17.5,166.1c0.3,1.3-0.5,2.5-1.8,2.8c-1.3,0.3-2.5-0.5-2.8-1.8c-0.3-1.3,0.5-2.5,1.8-2.8
		C16,164,17.2,164.8,17.5,166.1"/>
	<ellipse transform="matrix(0.9784 -0.2067 0.2067 0.9784 -34.0952 6.7432)" class="st16" cx="15.2" cy="166.6" rx="2.3" ry="2.3"/>
	<path class="st17" d="M27,169c0.3,1.3-0.5,2.5-1.8,2.8c-1.3,0.3-2.5-0.5-2.8-1.8c-0.3-1.3,0.5-2.5,1.8-2.8
		C25.5,166.9,26.8,167.7,27,169"/>
	<ellipse transform="matrix(0.9784 -0.2066 0.2066 0.9784 -34.4831 8.7711)" class="st16" cx="24.8" cy="169.5" rx="2.3" ry="2.3"/>
	<path class="st17" d="M32.5,152.9c0.3,1.3-0.5,2.5-1.8,2.8c-1.3,0.3-2.5-0.5-2.8-1.8c-0.3-1.3,0.5-2.5,1.8-2.8
		C31,150.9,32.3,151.7,32.5,152.9"/>
	<ellipse transform="matrix(0.9784 -0.2066 0.2066 0.9784 -31.0467 9.5609)" class="st16" cx="30.2" cy="153.4" rx="2.3" ry="2.3"/>
	<path class="st17" d="M34.6,162.5c0.3,1.3-0.5,2.5-1.8,2.8c-1.3,0.3-2.5-0.5-2.8-1.8c-0.3-1.3,0.5-2.5,1.8-2.8
		C33.1,160.4,34.3,161.2,34.6,162.5"/>
	<ellipse transform="matrix(0.9784 -0.2066 0.2066 0.9784 -32.9762 10.1853)" class="st16" cx="32.3" cy="163" rx="2.3" ry="2.3"/>
	<line class="st16" x1="67" y1="150.5" x2="57.3" y2="152.9"/>
	<line class="st16" x1="67" y1="150.5" x2="73.9" y2="157.7"/>
	<line class="st16" x1="57.3" y1="152.9" x2="54.5" y2="162.5"/>
	<line class="st16" x1="54.5" y1="162.5" x2="61.4" y2="169.7"/>
	<line class="st16" x1="61.4" y1="169.7" x2="71.1" y2="167.3"/>
	<line class="st16" x1="71.1" y1="167.3" x2="73.9" y2="157.7"/>
	<path class="st17" d="M69.2,151.4c-0.4,1.2-1.7,1.9-2.9,1.6c-1.2-0.4-1.9-1.7-1.6-2.9c0.4-1.2,1.7-1.9,2.9-1.6
		C68.9,148.9,69.6,150.1,69.2,151.4"/>
	<ellipse transform="matrix(0.2792 -0.9602 0.9602 0.2792 -96.4491 172.965)" class="st16" cx="67" cy="150.7" rx="2.3" ry="2.3"/>
	<path class="st17" d="M59.4,153.5c-0.4,1.2-1.7,1.9-2.9,1.6c-1.2-0.4-1.9-1.7-1.6-2.9c0.4-1.2,1.7-1.9,2.9-1.6
		C59,151,59.7,152.3,59.4,153.5"/>
	
		<ellipse transform="matrix(0.2793 -0.9602 0.9602 0.2793 -105.6183 165.0222)" class="st16" cx="57.1" cy="152.9" rx="2.3" ry="2.3"/>
	<path class="st17" d="M56.7,163.1c-0.4,1.2-1.7,1.9-2.9,1.6c-1.2-0.4-1.9-1.7-1.6-2.9c0.4-1.2,1.7-1.9,2.9-1.6
		C56.4,160.6,57.1,161.9,56.7,163.1"/>
	
		<ellipse transform="matrix(0.2792 -0.9602 0.9602 0.2792 -116.7161 169.4197)" class="st16" cx="54.5" cy="162.5" rx="2.3" ry="2.3"/>
	<path class="st17" d="M63.7,170.2c-0.4,1.2-1.7,1.9-2.9,1.6c-1.2-0.4-1.9-1.7-1.6-2.9c0.4-1.2,1.7-1.9,2.9-1.6
		C63.4,167.6,64.1,168.9,63.7,170.2"/>
	
		<ellipse transform="matrix(0.2792 -0.9602 0.9602 0.2792 -118.4322 181.2304)" class="st16" cx="61.5" cy="169.5" rx="2.3" ry="2.3"/>
	<path class="st17" d="M76.2,158.6c-0.4,1.2-1.7,1.9-2.9,1.6c-1.2-0.4-1.9-1.7-1.6-2.9c0.4-1.2,1.7-1.9,2.9-1.6
		C75.9,156.1,76.6,157.3,76.2,158.6"/>
	<ellipse transform="matrix(0.2793 -0.9602 0.9602 0.2793 -98.3414 184.8365)" class="st16" cx="74" cy="157.9" rx="2.3" ry="2.3"/>
	<path class="st17" d="M73.5,168c-0.4,1.2-1.7,1.9-2.9,1.6c-1.2-0.4-1.9-1.7-1.6-2.9c0.4-1.2,1.7-1.9,2.9-1.6
		C73.1,165.4,73.8,166.7,73.5,168"/>
	
		<ellipse transform="matrix(0.2792 -0.9602 0.9602 0.2792 -109.3302 188.9867)" class="st16" cx="71.2" cy="167.3" rx="2.3" ry="2.3"/>
	<line class="st16" x1="43.3" y1="168.8" x2="51.9" y2="163.8"/>
	<line class="st16" x1="43.3" y1="168.8" x2="34.6" y2="163.8"/>
	<path class="st18" d="M40.8,168.5c0-1.3,1-2.3,2.3-2.3c1.3,0,2.3,1,2.3,2.3c0,1.3-1,2.3-2.3,2.3C41.9,170.9,40.8,169.8,40.8,168.5"
		/>
	<ellipse class="st16" cx="43.1" cy="168.5" rx="2.3" ry="2.3"/>
	<path class="st17" d="M52.3,144.7c0,1.3-1,2.3-2.3,2.3c-1.3,0-2.3-1-2.3-2.3c0-1.3,1-2.3,2.3-2.3C51.2,142.3,52.3,143.4,52.3,144.7
		"/>
	<ellipse class="st16" cx="49.9" cy="144.7" rx="2.3" ry="2.3"/>
	<line class="st16" x1="61.4" y1="115.5" x2="51.5" y2="117"/>
	<line class="st16" x1="61.4" y1="115.5" x2="67.7" y2="123.2"/>
	<line class="st16" x1="51.5" y1="117" x2="48" y2="126.3"/>
	<line class="st16" x1="48" y1="126.3" x2="54.2" y2="134.1"/>
	<line class="st16" x1="54.2" y1="134.1" x2="64.1" y2="132.5"/>
	<line class="st16" x1="64.1" y1="132.5" x2="67.7" y2="123.2"/>
	<path class="st17" d="M53.6,117.8c-0.5,1.2-1.8,1.8-3,1.3c-1.2-0.5-1.8-1.8-1.3-3c0.5-1.2,1.8-1.8,3-1.3
		C53.5,115.3,54.1,116.6,53.6,117.8"/>
	<ellipse transform="matrix(0.3586 -0.9335 0.9335 0.3586 -76.2471 123.0489)" class="st16" cx="51.4" cy="117" rx="2.3" ry="2.3"/>
	<path class="st17" d="M50.2,127.2c-0.5,1.2-1.8,1.8-3,1.3c-1.2-0.5-1.8-1.8-1.3-3c0.5-1.2,1.8-1.8,3-1.3
		C50,124.6,50.6,126,50.2,127.2"/>
	<ellipse transform="matrix(0.3587 -0.9335 0.9335 0.3587 -87.1542 125.8131)" class="st16" cx="48" cy="126.3" rx="2.3" ry="2.3"/>
	<path class="st17" d="M69.9,124.3c-0.5,1.2-1.8,1.8-3,1.3c-1.2-0.5-1.8-1.8-1.3-3c0.5-1.2,1.8-1.8,3-1.3
		C69.8,121.7,70.4,123.1,69.9,124.3"/>
	
		<ellipse transform="matrix(0.3586 -0.9335 0.9335 0.3586 -71.7765 142.4462)" class="st16" cx="67.8" cy="123.5" rx="2.3" ry="2.3"/>
	<path class="st17" d="M66.4,133.4c-0.5,1.2-1.8,1.8-3,1.3c-1.2-0.5-1.8-1.8-1.3-3c0.5-1.2,1.8-1.8,3-1.3
		C66.3,130.9,66.9,132.2,66.4,133.4"/>
	
		<ellipse transform="matrix(0.3585 -0.9335 0.9335 0.3585 -82.5531 145.0214)" class="st16" cx="64.2" cy="132.6" rx="2.3" ry="2.3"/>
	<path class="st17" d="M67.6,106.5c-0.5,1.2-1.8,1.8-3,1.3c-1.2-0.5-1.8-1.8-1.3-3c0.5-1.2,1.8-1.8,3-1.3
		C67.5,103.9,68.1,105.3,67.6,106.5"/>
	
		<ellipse transform="matrix(0.3586 -0.9335 0.9335 0.3586 -56.6527 128.8463)" class="st16" cx="65.4" cy="105.6" rx="2.3" ry="2.3"/>
	<path class="st19" d="M40.3,144.2c0,1.3-1,2.3-2.3,2.3c-1.3,0-2.3-1-2.3-2.3c0-1.3,1-2.3,2.3-2.3C39.2,141.8,40.3,142.9,40.3,144.2
		"/>
	<ellipse class="st16" cx="37.9" cy="144.2" rx="2.3" ry="2.3"/>
	<path class="st19" d="M63.6,116.5c-0.5,1.2-1.8,1.8-3,1.3c-1.2-0.5-1.8-1.8-1.3-3c0.5-1.2,1.8-1.8,3-1.3
		C63.5,114,64.1,115.3,63.6,116.5"/>
	
		<ellipse transform="matrix(0.3585 -0.9335 0.9335 0.3585 -68.6004 131.5677)" class="st16" cx="61.4" cy="115.7" rx="2.3" ry="2.3"/>
	<path class="st19" d="M56.6,134.8c-0.5,1.2-1.8,1.8-3,1.3c-1.2-0.5-1.8-1.8-1.3-3c0.5-1.2,1.8-1.8,3-1.3
		C56.4,132.2,57,133.6,56.6,134.8"/>
	
		<ellipse transform="matrix(0.3586 -0.9335 0.9335 0.3586 -90.1573 136.683)" class="st16" cx="54.4" cy="133.9" rx="2.3" ry="2.3"/>
</g>
<g>
	<defs>
		<rect id="SVGID_27_" x="108.5" y="104.3" width="75.9" height="70.2"/>
	</defs>
	<clipPath id="SVGID_28_">
		<use xlink:href="#SVGID_27_"  style="overflow:visible;"/>
	</clipPath>
	<line class="st20" x1="137.9" y1="151.8" x2="129.2" y2="156.8"/>
	<line class="st20" x1="137.9" y1="151.8" x2="146.6" y2="156.8"/>
	<line class="st20" x1="129.2" y1="156.8" x2="129.2" y2="166.8"/>
	<line class="st20" x1="129.2" y1="166.8" x2="137.9" y2="171.8"/>
	<line class="st20" x1="137.9" y1="171.8" x2="146.6" y2="166.8"/>
	<line class="st20" x1="146.6" y1="166.8" x2="146.6" y2="156.8"/>
	<line class="st20" x1="120" y1="151.8" x2="111.3" y2="156.8"/>
	<line class="st20" x1="120" y1="151.8" x2="128.6" y2="156.8"/>
	<line class="st20" x1="111.3" y1="156.8" x2="111.3" y2="166.8"/>
	<line class="st20" x1="111.3" y1="166.8" x2="120" y2="171.8"/>
	<line class="st20" x1="120" y1="171.8" x2="128.6" y2="166.8"/>
	<line class="st20" x1="155.5" y1="151.9" x2="146.8" y2="156.9"/>
	<line class="st20" x1="155.5" y1="151.9" x2="164.2" y2="156.9"/>
	<line class="st20" x1="146.8" y1="166.9" x2="155.5" y2="171.9"/>
	<line class="st20" x1="155.5" y1="171.9" x2="164.2" y2="166.9"/>
	<line class="st20" x1="164.2" y1="166.9" x2="164.2" y2="156.9"/>
	<line class="st20" x1="173" y1="151.8" x2="164.3" y2="156.8"/>
	<line class="st20" x1="173" y1="151.8" x2="181.7" y2="156.8"/>
	<path class="st21" d="M183.8,157.4c-0.5,1.2-1.8,1.8-3,1.3c-1.2-0.5-1.8-1.8-1.3-3c0.5-1.2,1.8-1.8,3-1.3
		C183.7,154.9,184.3,156.2,183.8,157.4"/>
	
		<ellipse transform="matrix(0.3585 -0.9335 0.9335 0.3585 -29.6649 270.0146)" class="st20" cx="181.6" cy="156.6" rx="2.3" ry="2.3"/>
	<line class="st20" x1="129.4" y1="136.8" x2="138.1" y2="141.8"/>
	<line class="st20" x1="138.1" y1="151.8" x2="138.1" y2="141.8"/>
	<line class="st20" x1="129.5" y1="106.6" x2="120.8" y2="111.6"/>
	<line class="st20" x1="129.5" y1="106.6" x2="138.2" y2="111.6"/>
	<line class="st20" x1="120.8" y1="111.6" x2="120.8" y2="121.6"/>
	<line class="st20" x1="120.8" y1="121.6" x2="129.5" y2="126.6"/>
	<line class="st20" x1="129.5" y1="126.6" x2="138.2" y2="121.6"/>
	<line class="st20" x1="138.2" y1="121.6" x2="138.2" y2="111.6"/>
	<line class="st20" x1="129.6" y1="126.7" x2="129.6" y2="136.7"/>
	<line class="st20" x1="112" y1="126.7" x2="120.6" y2="121.7"/>
	<path class="st22" d="M131.4,156.8c0,1.3-1,2.3-2.3,2.3c-1.3,0-2.3-1-2.3-2.3c0-1.3,1-2.3,2.3-2.3
		C130.4,154.5,131.4,155.5,131.4,156.8"/>
	<ellipse class="st20" cx="129.1" cy="156.8" rx="2.3" ry="2.3"/>
	<path class="st22" d="M131.6,166.8c0,1.3-1,2.3-2.3,2.3c-1.3,0-2.3-1-2.3-2.3c0-1.3,1-2.3,2.3-2.3
		C130.5,164.4,131.6,165.5,131.6,166.8"/>
	<ellipse class="st20" cx="129.2" cy="166.8" rx="2.3" ry="2.3"/>
	<path class="st22" d="M149.1,156.9c0,1.3-1,2.3-2.3,2.3c-1.3,0-2.3-1-2.3-2.3s1-2.3,2.3-2.3C148,154.6,149.1,155.7,149.1,156.9"/>
	<ellipse class="st20" cx="146.7" cy="156.9" rx="2.3" ry="2.3"/>
	<path class="st22" d="M149.1,166.8c0,1.3-1,2.3-2.3,2.3c-1.3,0-2.3-1-2.3-2.3c0-1.3,1-2.3,2.3-2.3
		C148,164.4,149.1,165.5,149.1,166.8"/>
	<ellipse class="st20" cx="146.7" cy="166.8" rx="2.3" ry="2.3"/>
	<path class="st22" d="M122.4,152c0,1.3-1,2.3-2.3,2.3c-1.3,0-2.3-1-2.3-2.3c0-1.3,1-2.3,2.3-2.3C121.3,149.6,122.4,150.7,122.4,152
		"/>
	<ellipse class="st20" cx="120" cy="152" rx="2.3" ry="2.3"/>
	<path class="st22" d="M113.5,156.8c0,1.3-1,2.3-2.3,2.3c-1.3,0-2.3-1-2.3-2.3c0-1.3,1-2.3,2.3-2.3
		C112.4,154.5,113.5,155.5,113.5,156.8"/>
	<ellipse class="st20" cx="111.1" cy="156.8" rx="2.3" ry="2.3"/>
	<path class="st22" d="M113.6,166.8c0,1.3-1,2.3-2.3,2.3c-1.3,0-2.3-1-2.3-2.3c0-1.3,1-2.3,2.3-2.3
		C112.6,164.4,113.6,165.5,113.6,166.8"/>
	<ellipse class="st20" cx="111.3" cy="166.8" rx="2.3" ry="2.3"/>
	<path class="st22" d="M122.4,171.6c0,1.3-1,2.3-2.3,2.3c-1.3,0-2.3-1-2.3-2.3c0-1.3,1-2.3,2.3-2.3
		C121.3,169.3,122.4,170.3,122.4,171.6"/>
	<ellipse class="st20" cx="120" cy="171.6" rx="2.3" ry="2.3"/>
	<path class="st22" d="M158,152.1c0,1.3-1,2.3-2.3,2.3c-1.3,0-2.3-1-2.3-2.3c0-1.3,1-2.3,2.3-2.3C156.9,149.8,158,150.8,158,152.1"
		/>
	<ellipse class="st20" cx="155.6" cy="152.1" rx="2.3" ry="2.3"/>
	<path class="st22" d="M158,171.7c0,1.3-1,2.3-2.3,2.3c-1.3,0-2.3-1-2.3-2.3s1-2.3,2.3-2.3C156.9,169.4,158,170.5,158,171.7"/>
	<ellipse class="st20" cx="155.6" cy="171.7" rx="2.3" ry="2.3"/>
	<path class="st22" d="M166.7,157.1c0,1.3-1,2.3-2.3,2.3c-1.3,0-2.3-1-2.3-2.3c0-1.3,1-2.3,2.3-2.3
		C165.7,154.8,166.7,155.8,166.7,157.1"/>
	<ellipse class="st20" cx="164.4" cy="157.1" rx="2.3" ry="2.3"/>
	<path class="st22" d="M166.7,166.9c0,1.3-1,2.3-2.3,2.3c-1.3,0-2.3-1-2.3-2.3c0-1.3,1-2.3,2.3-2.3
		C165.7,164.6,166.7,165.6,166.7,166.9"/>
	<ellipse class="st20" cx="164.4" cy="166.9" rx="2.3" ry="2.3"/>
	<path class="st22" d="M140.5,141.9c0,1.3-1,2.3-2.3,2.3s-2.3-1-2.3-2.3s1-2.3,2.3-2.3S140.5,140.6,140.5,141.9"/>
	<ellipse class="st20" cx="138.2" cy="141.9" rx="2.3" ry="2.3"/>
	<path class="st22" d="M123,111.6c0,1.3-1,2.3-2.3,2.3c-1.3,0-2.3-1-2.3-2.3c0-1.3,1-2.3,2.3-2.3C122,109.3,123,110.4,123,111.6"/>
	<ellipse class="st20" cx="120.7" cy="111.6" rx="2.3" ry="2.3"/>
	<path class="st22" d="M131.9,126.4c0,1.3-1,2.3-2.3,2.3c-1.3,0-2.3-1-2.3-2.3c0-1.3,1-2.3,2.3-2.3
		C130.9,124.1,131.9,125.2,131.9,126.4"/>
	<ellipse class="st20" cx="129.6" cy="126.4" rx="2.3" ry="2.3"/>
	<path class="st22" d="M140.7,111.8c0,1.3-1,2.3-2.3,2.3c-1.3,0-2.3-1-2.3-2.3s1-2.3,2.3-2.3C139.6,109.5,140.7,110.5,140.7,111.8"
		/>
	<ellipse class="st20" cx="138.3" cy="111.8" rx="2.3" ry="2.3"/>
	<path class="st22" d="M140.7,121.6c0,1.3-1,2.3-2.3,2.3c-1.3,0-2.3-1-2.3-2.3c0-1.3,1-2.3,2.3-2.3
		C139.6,119.3,140.7,120.3,140.7,121.6"/>
	<ellipse class="st20" cx="138.3" cy="121.6" rx="2.3" ry="2.3"/>
	<path class="st22" d="M132,136.7c0,1.3-1,2.3-2.3,2.3c-1.3,0-2.3-1-2.3-2.3c0-1.3,1-2.3,2.3-2.3C130.9,134.4,132,135.4,132,136.7"
		/>
	<ellipse class="st20" cx="129.6" cy="136.7" rx="2.3" ry="2.3"/>
	<path class="st22" d="M114.4,126.5c0,1.3-1,2.3-2.3,2.3c-1.3,0-2.3-1-2.3-2.3s1-2.3,2.3-2.3C113.3,124.1,114.4,125.2,114.4,126.5"
		/>
	<ellipse class="st20" cx="112" cy="126.5" rx="2.3" ry="2.3"/>
	<path class="st22" d="M132.1,106.9c0,1.3-1,2.3-2.3,2.3c-1.3,0-2.3-1-2.3-2.3c0-1.3,1-2.3,2.3-2.3
		C131,104.6,132.1,105.6,132.1,106.9"/>
	<ellipse class="st20" cx="129.7" cy="106.9" rx="2.3" ry="2.3"/>
	<path class="st23" d="M140.3,152c0,1.3-1,2.3-2.3,2.3c-1.3,0-2.3-1-2.3-2.3c0-1.3,1-2.3,2.3-2.3C139.3,149.6,140.3,150.7,140.3,152
		"/>
	<ellipse class="st20" cx="138" cy="152" rx="2.3" ry="2.3"/>
	<path class="st23" d="M123.2,121.6c0,1.3-1,2.3-2.3,2.3c-1.3,0-2.3-1-2.3-2.3c0-1.3,1-2.3,2.3-2.3
		C122.1,119.3,123.2,120.3,123.2,121.6"/>
	<ellipse class="st20" cx="120.8" cy="121.6" rx="2.3" ry="2.3"/>
	<path class="st24" d="M140.2,171.8c0,1.3-1,2.3-2.3,2.3c-1.3,0-2.3-1-2.3-2.3c0-1.3,1-2.3,2.3-2.3
		C139.2,169.4,140.2,170.5,140.2,171.8"/>
	<ellipse class="st20" cx="137.9" cy="171.8" rx="2.3" ry="2.3"/>
	<path class="st24" d="M175.5,152c0,1.3-1,2.3-2.3,2.3c-1.3,0-2.3-1-2.3-2.3c0-1.3,1-2.3,2.3-2.3C174.4,149.6,175.5,150.7,175.5,152
		"/>
	<ellipse class="st20" cx="173.1" cy="152" rx="2.3" ry="2.3"/>
</g>
<g>
	<defs>
		<rect id="SVGID_29_" x="200.6" y="103.1" width="85" height="70.7"/>
	</defs>
	<clipPath id="SVGID_30_">
		<use xlink:href="#SVGID_29_"  style="overflow:visible;"/>
	</clipPath>
	<line class="st25" x1="229.8" y1="151.2" x2="221.2" y2="156.2"/>
	<line class="st25" x1="229.8" y1="151.2" x2="238.5" y2="156.2"/>
	<line class="st25" x1="221.2" y1="156.2" x2="221.2" y2="166.2"/>
	<line class="st25" x1="221.2" y1="166.2" x2="229.8" y2="171.1"/>
	<line class="st25" x1="229.8" y1="171.1" x2="238.5" y2="166.2"/>
	<line class="st25" x1="238.5" y1="166.2" x2="238.5" y2="156.2"/>
	<line class="st25" x1="212" y1="151.2" x2="203.4" y2="156.2"/>
	<line class="st25" x1="212" y1="151.2" x2="220.6" y2="156.2"/>
	<line class="st25" x1="203.4" y1="156.2" x2="203.4" y2="166.2"/>
	<line class="st25" x1="203.4" y1="166.2" x2="212" y2="171.1"/>
	<line class="st25" x1="212" y1="171.1" x2="220.6" y2="166.2"/>
	<line class="st25" x1="247.4" y1="151.3" x2="238.7" y2="156.3"/>
	<line class="st25" x1="247.4" y1="151.3" x2="256" y2="156.3"/>
	<line class="st25" x1="238.7" y1="166.3" x2="247.4" y2="171.3"/>
	<line class="st25" x1="247.4" y1="171.3" x2="256" y2="166.3"/>
	<line class="st25" x1="256" y1="166.3" x2="256" y2="156.3"/>
	<line class="st25" x1="264.8" y1="151.2" x2="256.2" y2="156.2"/>
	<line class="st25" x1="230" y1="151.2" x2="230" y2="141.2"/>
	<line class="st25" x1="221.5" y1="106.1" x2="212.8" y2="111.1"/>
	<line class="st25" x1="221.5" y1="106.1" x2="230.1" y2="111.1"/>
	<line class="st25" x1="212.8" y1="111.1" x2="212.8" y2="121.1"/>
	<line class="st25" x1="212.8" y1="121.1" x2="221.5" y2="126.1"/>
	<line class="st25" x1="221.5" y1="126.1" x2="230.1" y2="121.1"/>
	<line class="st25" x1="230.1" y1="121.1" x2="230.1" y2="111.1"/>
	<line class="st25" x1="273.7" y1="145.9" x2="265.1" y2="150.9"/>
	<line class="st25" x1="274.2" y1="135.8" x2="274.2" y2="145.8"/>
	<line class="st25" x1="274.2" y1="145.8" x2="282.8" y2="150.8"/>
	<line class="st25" x1="260.5" y1="143.7" x2="269.4" y2="158.5"/>
	<line class="st25" x1="230.6" y1="121.6" x2="239.2" y2="126.6"/>
	<line class="st25" x1="230.6" y1="141.5" x2="239.2" y2="136.5"/>
	<line class="st25" x1="239.2" y1="136.5" x2="239.2" y2="126.6"/>
	<line class="st25" x1="203.6" y1="105.8" x2="212.3" y2="110.8"/>
	<path class="st26" d="M223.4,156.2c0,1.3-1,2.3-2.3,2.3c-1.3,0-2.3-1-2.3-2.3c0-1.3,1-2.3,2.3-2.3
		C222.3,153.8,223.4,154.9,223.4,156.2"/>
	<ellipse class="st25" cx="221.1" cy="156.2" rx="2.3" ry="2.3"/>
	<path class="st26" d="M223.5,166.1c0,1.3-1,2.3-2.3,2.3c-1.3,0-2.3-1-2.3-2.3c0-1.3,1-2.3,2.3-2.3
		C222.5,163.8,223.5,164.8,223.5,166.1"/>
	<ellipse class="st25" cx="221.2" cy="166.1" rx="2.3" ry="2.3"/>
	<path class="st26" d="M240.9,156.3c0,1.3-1,2.3-2.3,2.3c-1.3,0-2.3-1-2.3-2.3c0-1.3,1-2.3,2.3-2.3C239.9,154,240.9,155,240.9,156.3
		"/>
	<ellipse class="st25" cx="238.6" cy="156.3" rx="2.3" ry="2.3"/>
	<path class="st26" d="M240.9,166.1c0,1.3-1,2.3-2.3,2.3c-1.3,0-2.3-1-2.3-2.3c0-1.3,1-2.3,2.3-2.3
		C239.9,163.8,240.9,164.8,240.9,166.1"/>
	<ellipse class="st25" cx="238.6" cy="166.1" rx="2.3" ry="2.3"/>
	<path class="st26" d="M214.4,151.4c0,1.3-1,2.3-2.3,2.3c-1.3,0-2.3-1-2.3-2.3c0-1.3,1-2.3,2.3-2.3
		C213.4,149,214.4,150.1,214.4,151.4"/>
	<ellipse class="st25" cx="212.1" cy="151.4" rx="2.3" ry="2.3"/>
	<path class="st26" d="M205.6,156.2c0,1.3-1,2.3-2.3,2.3c-1.3,0-2.3-1-2.3-2.3c0-1.3,1-2.3,2.3-2.3
		C204.5,153.8,205.6,154.9,205.6,156.2"/>
	<ellipse class="st25" cx="203.2" cy="156.2" rx="2.3" ry="2.3"/>
	<path class="st26" d="M205.7,166.1c0,1.3-1,2.3-2.3,2.3c-1.3,0-2.3-1-2.3-2.3c0-1.3,1-2.3,2.3-2.3
		C204.7,163.8,205.7,164.8,205.7,166.1"/>
	<ellipse class="st25" cx="203.4" cy="166.1" rx="2.3" ry="2.3"/>
	<path class="st26" d="M214.4,171c0,1.3-1,2.3-2.3,2.3c-1.3,0-2.3-1-2.3-2.3c0-1.3,1-2.3,2.3-2.3C213.4,168.6,214.4,169.7,214.4,171
		"/>
	<ellipse class="st25" cx="212.1" cy="171" rx="2.3" ry="2.3"/>
	<path class="st26" d="M249.8,151.5c0,1.3-1,2.3-2.3,2.3c-1.3,0-2.3-1-2.3-2.3c0-1.3,1-2.3,2.3-2.3
		C248.8,149.2,249.8,150.2,249.8,151.5"/>
	<ellipse class="st25" cx="247.5" cy="151.5" rx="2.3" ry="2.3"/>
	<path class="st26" d="M249.8,171.1c0,1.3-1,2.3-2.3,2.3c-1.3,0-2.3-1-2.3-2.3c0-1.3,1-2.3,2.3-2.3
		C248.8,168.8,249.8,169.8,249.8,171.1"/>
	<ellipse class="st25" cx="247.5" cy="171.1" rx="2.3" ry="2.3"/>
	<path class="st26" d="M258.5,156.5c0,1.3-1,2.3-2.3,2.3s-2.3-1-2.3-2.3c0-1.3,1-2.3,2.3-2.3S258.5,155.2,258.5,156.5"/>
	<ellipse class="st25" cx="256.2" cy="156.5" rx="2.3" ry="2.3"/>
	<path class="st26" d="M258.5,166.3c0,1.3-1,2.3-2.3,2.3s-2.3-1-2.3-2.3c0-1.3,1-2.3,2.3-2.3S258.5,165,258.5,166.3"/>
	<ellipse class="st25" cx="256.2" cy="166.3" rx="2.3" ry="2.3"/>
	<path class="st26" d="M232.5,141.3c0,1.3-1,2.3-2.3,2.3c-1.3,0-2.3-1-2.3-2.3c0-1.3,1-2.3,2.3-2.3
		C231.4,139,232.5,140.1,232.5,141.3"/>
	<ellipse class="st25" cx="230.1" cy="141.3" rx="2.3" ry="2.3"/>
	<path class="st26" d="M215.2,121.1c0,1.3-1,2.3-2.3,2.3c-1.3,0-2.3-1-2.3-2.3c0-1.3,1-2.3,2.3-2.3
		C214.1,118.7,215.2,119.8,215.2,121.1"/>
	<ellipse class="st25" cx="212.9" cy="121.1" rx="2.3" ry="2.3"/>
	<path class="st26" d="M223.9,125.9c0,1.3-1,2.3-2.3,2.3c-1.3,0-2.3-1-2.3-2.3c0-1.3,1-2.3,2.3-2.3
		C222.8,123.5,223.9,124.6,223.9,125.9"/>
	<ellipse class="st25" cx="221.6" cy="125.9" rx="2.3" ry="2.3"/>
	<path class="st26" d="M232.6,111.3c0,1.3-1,2.3-2.3,2.3s-2.3-1-2.3-2.3c0-1.3,1-2.3,2.3-2.3S232.6,110,232.6,111.3"/>
	<ellipse class="st25" cx="230.3" cy="111.3" rx="2.3" ry="2.3"/>
	<path class="st26" d="M276.4,135.8c0,1.3-1,2.3-2.3,2.3c-1.3,0-2.3-1-2.3-2.3c0-1.3,1-2.3,2.3-2.3
		C275.4,133.5,276.4,134.5,276.4,135.8"/>
	<ellipse class="st25" cx="274.1" cy="135.8" rx="2.3" ry="2.3"/>
	<path class="st26" d="M285.3,150.6c0,1.3-1,2.3-2.3,2.3c-1.3,0-2.3-1-2.3-2.3c0-1.3,1-2.3,2.3-2.3
		C284.2,148.2,285.3,149.3,285.3,150.6"/>
	<ellipse class="st25" cx="282.9" cy="150.6" rx="2.3" ry="2.3"/>
	<path class="st26" d="M241.7,126.7c0,1.3-1,2.3-2.3,2.3s-2.3-1-2.3-2.3c0-1.3,1-2.3,2.3-2.3S241.7,125.4,241.7,126.7"/>
	<ellipse class="st25" cx="239.4" cy="126.7" rx="2.3" ry="2.3"/>
	<path class="st26" d="M241.7,136.5c0,1.3-1,2.3-2.3,2.3s-2.3-1-2.3-2.3c0-1.3,1-2.3,2.3-2.3S241.7,135.2,241.7,136.5"/>
	<ellipse class="st25" cx="239.4" cy="136.5" rx="2.3" ry="2.3"/>
	<path class="st26" d="M223.8,106.1c0,1.3-1,2.3-2.3,2.3c-1.3,0-2.3-1-2.3-2.3c0-1.3,1-2.3,2.3-2.3
		C222.8,103.8,223.8,104.8,223.8,106.1"/>
	<ellipse class="st25" cx="221.5" cy="106.1" rx="2.3" ry="2.3"/>
	<path class="st26" d="M206,105.8c0,1.3-1,2.3-2.3,2.3c-1.3,0-2.3-1-2.3-2.3c0-1.3,1-2.3,2.3-2.3C204.9,103.4,206,104.5,206,105.8"
		/>
	<ellipse class="st25" cx="203.6" cy="105.8" rx="2.3" ry="2.3"/>
	<path class="st27" d="M258,143.4c0-1.3,1-2.3,2.3-2.3c1.3,0,2.3,1,2.3,2.3c0,1.3-1,2.3-2.3,2.3C259.1,145.8,258,144.7,258,143.4"/>
	<ellipse class="st25" cx="260.4" cy="143.4" rx="2.3" ry="2.3"/>
	<path class="st27" d="M267,158.5c0-1.3,1-2.3,2.3-2.3c1.3,0,2.3,1,2.3,2.3c0,1.3-1,2.3-2.3,2.3C268.1,160.9,267,159.8,267,158.5"/>
	<ellipse class="st25" cx="269.4" cy="158.5" rx="2.3" ry="2.3"/>
	<path class="st28" d="M232.2,151.4c0,1.3-1,2.3-2.3,2.3c-1.3,0-2.3-1-2.3-2.3c0-1.3,1-2.3,2.3-2.3
		C231.2,149,232.2,150.1,232.2,151.4"/>
	<ellipse class="st25" cx="229.9" cy="151.4" rx="2.3" ry="2.3"/>
	<path class="st28" d="M215,111.1c0,1.3-1,2.3-2.3,2.3c-1.3,0-2.3-1-2.3-2.3c0-1.3,1-2.3,2.3-2.3C214,108.8,215,109.8,215,111.1"/>
	<ellipse class="st25" cx="212.7" cy="111.1" rx="2.3" ry="2.3"/>
	<path class="st28" d="M232.6,121.1c0,1.3-1,2.3-2.3,2.3s-2.3-1-2.3-2.3c0-1.3,1-2.3,2.3-2.3S232.6,119.8,232.6,121.1"/>
	<ellipse class="st25" cx="230.3" cy="121.1" rx="2.3" ry="2.3"/>
	<path class="st28" d="M276.1,146.1c0,1.3-1,2.3-2.3,2.3c-1.3,0-2.3-1-2.3-2.3c0-1.3,1-2.3,2.3-2.3
		C275.1,143.7,276.1,144.8,276.1,146.1"/>
	<ellipse class="st25" cx="273.8" cy="146.1" rx="2.3" ry="2.3"/>
	<path class="st29" d="M232.2,171.1c0,1.3-1,2.3-2.3,2.3c-1.3,0-2.3-1-2.3-2.3c0-1.3,1-2.3,2.3-2.3
		C231.1,168.8,232.2,169.9,232.2,171.1"/>
	<ellipse class="st25" cx="229.8" cy="171.1" rx="2.3" ry="2.3"/>
	<path class="st29" d="M267.2,151.4c0,1.3-1,2.3-2.3,2.3c-1.3,0-2.3-1-2.3-2.3c0-1.3,1-2.3,2.3-2.3
		C266.2,149,267.2,150.1,267.2,151.4"/>
	<ellipse class="st25" cx="264.9" cy="151.4" rx="2.3" ry="2.3"/>
</g>
<g>
	<defs>
		<rect id="SVGID_31_" x="361.9" y="105.1" width="85.6" height="66.6"/>
	</defs>
	<clipPath id="SVGID_32_">
		<use xlink:href="#SVGID_31_"  style="overflow:visible;"/>
	</clipPath>
	<line class="st30" x1="409.4" y1="118.9" x2="413.2" y2="109.5"/>
	<line class="st30" x1="398.8" y1="146.1" x2="402.9" y2="136.1"/>
	<line class="st30" x1="398.8" y1="146.1" x2="405.5" y2="153.8"/>
	<line class="st30" x1="398.8" y1="146.1" x2="387.6" y2="145.7"/>
	<line class="st30" x1="387.6" y1="145.7" x2="380.3" y2="154.2"/>
	<line class="st30" x1="441" y1="128.4" x2="444.7" y2="118.9"/>
	<line class="st31" x1="371.4" y1="151.3" x2="364.5" y2="157.5"/>
	<line class="st31" x1="371.4" y1="151.3" x2="380.3" y2="154.2"/>
	<line class="st31" x1="364.5" y1="157.5" x2="366.5" y2="166.6"/>
	<line class="st31" x1="366.5" y1="166.6" x2="375.3" y2="169.5"/>
	<line class="st31" x1="375.3" y1="169.5" x2="382.2" y2="163.2"/>
	<line class="st31" x1="382.2" y1="163.2" x2="380.3" y2="154.2"/>
	<path class="st32" d="M373.7,151c0.2,1.2-0.5,2.3-1.7,2.6c-1.2,0.2-2.3-0.5-2.6-1.7c-0.2-1.2,0.5-2.3,1.7-2.6
		C372.3,149.1,373.4,149.8,373.7,151"/>
	<ellipse transform="matrix(0.9783 -0.207 0.207 0.9783 -23.2991 80.1903)" class="st31" cx="371.6" cy="151.4" rx="2.2" ry="2.2"/>
	<path class="st32" d="M366.5,157.1c0.2,1.2-0.5,2.3-1.7,2.6c-1.2,0.2-2.3-0.5-2.6-1.7c-0.2-1.2,0.5-2.3,1.7-2.6
		C365.1,155.2,366.3,155.9,366.5,157.1"/>
	
		<ellipse transform="matrix(0.9784 -0.2069 0.2069 0.9784 -24.712 78.8262)" class="st31" cx="364.4" cy="157.5" rx="2.2" ry="2.2"/>
	<path class="st32" d="M368.6,166.1c0.2,1.2-0.5,2.3-1.7,2.6c-1.2,0.2-2.3-0.5-2.6-1.7c-0.2-1.2,0.5-2.3,1.7-2.6
		C367.2,164.2,368.4,164.9,368.6,166.1"/>
	<ellipse transform="matrix(0.9783 -0.207 0.207 0.9783 -26.5416 79.4743)" class="st31" cx="366.5" cy="166.6" rx="2.2" ry="2.2"/>
	<path class="st32" d="M377.5,168.8c0.2,1.2-0.5,2.3-1.7,2.6c-1.2,0.2-2.3-0.5-2.6-1.7c-0.2-1.2,0.5-2.3,1.7-2.6
		C376.1,166.9,377.2,167.6,377.5,168.8"/>
	<ellipse transform="matrix(0.9783 -0.207 0.207 0.9783 -26.9067 81.349)" class="st31" cx="375.3" cy="169.3" rx="2.2" ry="2.2"/>
	<path class="st32" d="M382.6,153.8c0.2,1.2-0.5,2.3-1.7,2.6c-1.2,0.2-2.3-0.5-2.6-1.7c-0.2-1.2,0.5-2.3,1.7-2.6
		C381.2,151.9,382.3,152.7,382.6,153.8"/>
	<ellipse transform="matrix(0.9783 -0.207 0.207 0.9783 -23.6968 82.092)" class="st31" cx="380.4" cy="154.3" rx="2.2" ry="2.2"/>
	<path class="st32" d="M384.5,162.8c0.2,1.2-0.5,2.3-1.7,2.6c-1.2,0.2-2.3-0.5-2.6-1.7c-0.2-1.2,0.5-2.3,1.7-2.6
		C383.1,160.8,384.2,161.6,384.5,162.8"/>
	<ellipse transform="matrix(0.9783 -0.207 0.207 0.9783 -25.4997 82.6666)" class="st31" cx="382.3" cy="163.2" rx="2.2" ry="2.2"/>
	<line class="st31" x1="414.6" y1="151.6" x2="405.6" y2="153.8"/>
	<line class="st31" x1="414.6" y1="151.6" x2="421" y2="158.3"/>
	<line class="st31" x1="405.6" y1="153.8" x2="403" y2="162.7"/>
	<line class="st31" x1="403" y1="162.7" x2="409.4" y2="169.4"/>
	<line class="st31" x1="409.4" y1="169.4" x2="418.4" y2="167.2"/>
	<line class="st31" x1="418.4" y1="167.2" x2="421" y2="158.3"/>
	<path class="st32" d="M416.7,152.4c-0.3,1.2-1.5,1.8-2.7,1.5c-1.2-0.3-1.8-1.5-1.5-2.7c0.3-1.2,1.5-1.8,2.7-1.5
		C416.4,150,417.1,151.2,416.7,152.4"/>
	
		<ellipse transform="matrix(0.2798 -0.9601 0.9601 0.2798 152.8977 507.3917)" class="st31" cx="414.6" cy="151.8" rx="2.2" ry="2.2"/>
	<path class="st32" d="M407.5,154.4c-0.3,1.2-1.5,1.8-2.7,1.5c-1.2-0.3-1.8-1.5-1.5-2.7c0.3-1.2,1.5-1.8,2.7-1.5
		C407.2,152,407.9,153.2,407.5,154.4"/>
	
		<ellipse transform="matrix(0.2798 -0.9601 0.9601 0.2798 144.3698 500.0198)" class="st31" cx="405.5" cy="153.8" rx="2.2" ry="2.2"/>
	<path class="st32" d="M405.1,163.3c-0.3,1.2-1.5,1.8-2.7,1.5c-1.2-0.3-1.8-1.5-1.5-2.7c0.3-1.2,1.5-1.8,2.7-1.5
		C404.8,161,405.4,162.2,405.1,163.3"/>
	
		<ellipse transform="matrix(0.2797 -0.9601 0.9601 0.2797 134.0805 504.1356)" class="st31" cx="403" cy="162.7" rx="2.2" ry="2.2"/>
	<path class="st32" d="M411.6,169.9c-0.3,1.2-1.5,1.8-2.7,1.5c-1.2-0.3-1.8-1.5-1.5-2.7c0.3-1.2,1.5-1.8,2.7-1.5
		C411.3,167.5,412,168.7,411.6,169.9"/>
	
		<ellipse transform="matrix(0.2796 -0.9601 0.9601 0.2796 132.492 515.1536)" class="st31" cx="409.5" cy="169.3" rx="2.2" ry="2.2"/>
	<path class="st32" d="M423.2,159.1c-0.3,1.2-1.5,1.8-2.7,1.5c-1.2-0.3-1.8-1.5-1.5-2.7c0.3-1.2,1.5-1.8,2.7-1.5
		C422.9,156.8,423.5,158,423.2,159.1"/>
	
		<ellipse transform="matrix(0.2798 -0.9601 0.9601 0.2798 151.1353 518.46)" class="st31" cx="421.1" cy="158.5" rx="2.2" ry="2.2"/>
	<path class="st32" d="M420.7,167.9c-0.3,1.2-1.5,1.8-2.7,1.5c-1.2-0.3-1.8-1.5-1.5-2.7c0.3-1.1,1.5-1.8,2.7-1.5
		C420.3,165.5,421,166.7,420.7,167.9"/>
	
		<ellipse transform="matrix(0.2798 -0.9601 0.9601 0.2798 140.8963 522.3123)" class="st31" cx="418.6" cy="167.2" rx="2.2" ry="2.2"/>
	<path class="st32" d="M400.9,146.1c0,1.2-1,2.2-2.2,2.2c-1.2,0-2.2-1-2.2-2.2c0-1.2,1-2.2,2.2-2.2C400,144,400.9,144.9,400.9,146.1
		"/>
	<circle class="st31" cx="398.8" cy="146.1" r="2.2"/>
	<line class="st31" x1="409.4" y1="118.9" x2="400.3" y2="120.4"/>
	<line class="st31" x1="409.4" y1="118.9" x2="415.3" y2="126.2"/>
	<line class="st31" x1="400.3" y1="120.4" x2="396.9" y2="129.1"/>
	<line class="st31" x1="396.9" y1="129.1" x2="402.8" y2="136.3"/>
	<line class="st31" x1="402.8" y1="136.3" x2="412" y2="134.8"/>
	<line class="st31" x1="412" y1="134.8" x2="415.3" y2="126.2"/>
	<path class="st32" d="M402.2,121.1c-0.4,1.1-1.7,1.7-2.8,1.2c-1.1-0.4-1.7-1.7-1.2-2.8c0.4-1.1,1.7-1.7,2.8-1.2
		C402,118.8,402.6,120,402.2,121.1"/>
	
		<ellipse transform="matrix(0.3592 -0.9333 0.9333 0.3592 144.1073 450.5789)" class="st31" cx="400.1" cy="120.4" rx="2.2" ry="2.2"/>
	<path class="st32" d="M399,129.8c-0.4,1.1-1.7,1.7-2.8,1.2c-1.1-0.4-1.7-1.7-1.2-2.8c0.4-1.1,1.7-1.7,2.8-1.2
		C398.9,127.5,399.4,128.7,399,129.8"/>
	<ellipse transform="matrix(0.3592 -0.9332 0.9332 0.3592 133.9139 453.1421)" class="st31" cx="397" cy="129" rx="2.2" ry="2.2"/>
	<path class="st32" d="M417.4,127.1c-0.4,1.1-1.7,1.7-2.8,1.2c-1.1-0.4-1.7-1.7-1.2-2.8c0.4-1.1,1.7-1.7,2.8-1.2
		C417.3,124.8,417.8,126,417.4,127.1"/>
	
		<ellipse transform="matrix(0.3592 -0.9333 0.9333 0.3592 148.2494 468.6271)" class="st31" cx="415.4" cy="126.4" rx="2.2" ry="2.2"/>
	<path class="st32" d="M414.1,135.6c-0.4,1.1-1.7,1.7-2.8,1.2c-1.1-0.4-1.7-1.7-1.2-2.8c0.4-1.1,1.7-1.7,2.8-1.2
		C414,133.3,414.5,134.5,414.1,135.6"/>
	
		<ellipse transform="matrix(0.3591 -0.9333 0.9333 0.3591 138.2181 471.026)" class="st31" cx="412.1" cy="134.9" rx="2.2" ry="2.2"/>
	<line class="st31" x1="422.7" y1="107.4" x2="413.7" y2="109.7"/>
	<line class="st31" x1="422.7" y1="107.4" x2="429.1" y2="114.2"/>
	<path class="st32" d="M424.8,108.2c-0.3,1.2-1.5,1.8-2.7,1.5c-1.2-0.3-1.8-1.5-1.5-2.7c0.3-1.2,1.5-1.8,2.7-1.5
		C424.5,105.9,425.2,107.1,424.8,108.2"/>
	
		<ellipse transform="matrix(0.2798 -0.9601 0.9601 0.2798 201.1245 483.3755)" class="st31" cx="422.7" cy="107.6" rx="2.2" ry="2.2"/>
	<line class="st31" x1="438.5" y1="111.7" x2="429.5" y2="114"/>
	<line class="st31" x1="438.5" y1="111.7" x2="445" y2="118.5"/>
	<path class="st32" d="M440.6,112.5c-0.3,1.2-1.5,1.8-2.7,1.5c-1.2-0.3-1.8-1.5-1.5-2.7c0.3-1.2,1.5-1.8,2.7-1.5
		C440.3,110.2,441,111.4,440.6,112.5"/>
	
		<ellipse transform="matrix(0.2798 -0.9601 0.9601 0.2798 208.3816 501.6581)" class="st31" cx="438.6" cy="111.9" rx="2.2" ry="2.2"/>
	<path class="st32" d="M447.1,119.3c-0.3,1.2-1.5,1.8-2.7,1.5c-1.2-0.3-1.8-1.5-1.5-2.7c0.3-1.2,1.5-1.8,2.7-1.5
		C446.8,116.9,447.5,118.1,447.1,119.3"/>
	
		<ellipse transform="matrix(0.2798 -0.9601 0.9601 0.2798 206.6209 512.7258)" class="st31" cx="445" cy="118.7" rx="2.2" ry="2.2"/>
	<path class="st33" d="M443,129.4c-0.4,1.1-1.7,1.7-2.8,1.2c-1.1-0.4-1.7-1.7-1.2-2.8c0.4-1.1,1.7-1.7,2.8-1.2
		C442.9,127,443.4,128.2,443,129.4"/>
	
		<ellipse transform="matrix(0.3591 -0.9333 0.9333 0.3591 162.6254 493.9725)" class="st31" cx="441" cy="128.6" rx="2.2" ry="2.2"/>
	<path class="st34" d="M431.3,115c-0.3,1.2-1.5,1.8-2.7,1.5c-1.2-0.3-1.8-1.5-1.5-2.7c0.3-1.2,1.5-1.8,2.7-1.5
		C431,112.6,431.6,113.8,431.3,115"/>
	
		<ellipse transform="matrix(0.2798 -0.9601 0.9601 0.2798 199.3627 494.4425)" class="st31" cx="429.2" cy="114.3" rx="2.2" ry="2.2"/>
	<line class="st35" x1="392.6" y1="168.6" x2="400.6" y2="163.9"/>
	<line class="st31" x1="392.6" y1="168.6" x2="400.6" y2="163.9"/>
	<line class="st35" x1="392.6" y1="168.6" x2="384.5" y2="163.9"/>
	<line class="st31" x1="392.6" y1="168.6" x2="384.5" y2="163.9"/>
	<path class="st35" d="M389.8,145.7c0,1.2-1,2.2-2.2,2.2c-1.2,0-2.2-1-2.2-2.2c0-1.2,1-2.2,2.2-2.2
		C388.8,143.5,389.8,144.5,389.8,145.7"/>
	<circle class="st31" cx="387.6" cy="145.7" r="2.2"/>
	<path class="st35" d="M411.5,119.9c-0.4,1.1-1.7,1.7-2.8,1.2c-1.1-0.4-1.7-1.7-1.2-2.8c0.4-1.1,1.7-1.7,2.8-1.2
		C411.4,117.5,411.9,118.8,411.5,119.9"/>
	
		<ellipse transform="matrix(0.3591 -0.9333 0.9333 0.3591 151.2498 458.5112)" class="st31" cx="409.5" cy="119.1" rx="2.2" ry="2.2"/>
	<path class="st35" d="M404.9,136.9c-0.4,1.1-1.7,1.7-2.8,1.2c-1.1-0.4-1.7-1.7-1.2-2.8c0.4-1.1,1.7-1.7,2.8-1.2
		C404.8,134.6,405.4,135.8,404.9,136.9"/>
	
		<ellipse transform="matrix(0.3592 -0.9333 0.9333 0.3592 131.1402 463.2732)" class="st31" cx="402.9" cy="136.1" rx="2.2" ry="2.2"/>
	<path class="st36" d="M390.3,168.4c0-1.2,1-2.2,2.2-2.2c1.2,0,2.2,1,2.2,2.2c0,1.2-1,2.2-2.2,2.2
		C391.3,170.5,390.3,169.6,390.3,168.4"/>
	<circle class="st31" cx="392.4" cy="168.4" r="2.2"/>
	<path class="st32" d="M415.2,110.5c-0.4,1.1-1.7,1.7-2.8,1.2c-1.1-0.4-1.7-1.7-1.2-2.8c0.4-1.1,1.7-1.7,2.8-1.2
		C415.1,108.2,415.6,109.4,415.2,110.5"/>
	
		<ellipse transform="matrix(0.3592 -0.9333 0.9333 0.3592 162.3463 455.9639)" class="st31" cx="413.2" cy="109.8" rx="2.2" ry="2.2"/>
</g>
<text transform="matrix(1.0008 0 0 1 309.3126 50.6139)" class="st37 st38">…</text>
<text transform="matrix(1.0008 0 0 1 309.3126 137.6139)" class="st37 st38">…</text>
<g>
	<defs>
		<rect id="SVGID_33_" x="390.9" y="6.2" width="28.2" height="20.1"/>
	</defs>
	<clipPath id="SVGID_34_">
		<use xlink:href="#SVGID_33_"  style="overflow:visible;"/>
	</clipPath>
	<path class="st39" d="M405.4,8.3c0.1-0.4,0.1-0.5,0.1-0.7c0-0.5-0.4-0.8-0.9-0.8c-0.3,0-0.8,0.2-1.1,0.6c-0.1,0.2-0.3,1.1-0.4,1.6
		c-0.2,0.8-0.4,1.6-0.6,2.4l-1.4,5.5c-0.1,0.5-1.4,2.6-3.4,2.6c-1.6,0-1.9-1.3-1.9-2.5c0-1.4,0.5-3.3,1.6-6c0.5-1.2,0.6-1.6,0.6-2.2
		c0-1.4-1-2.5-2.5-2.5c-2.9,0-4,4.4-4,4.7c0,0.3,0.3,0.3,0.4,0.3c0.3,0,0.3-0.1,0.5-0.5c0.8-2.9,2-3.8,3.1-3.8c0.2,0,0.8,0,0.8,1
		c0,0.8-0.3,1.6-0.5,2.1c-1.2,3.2-1.8,5-1.8,6.4c0,2.7,1.9,3.6,3.7,3.6c1.2,0,2.2-0.5,3.1-1.4c-0.4,1.6-0.8,3.1-2,4.7
		c-0.8,1-1.9,1.9-3.3,1.9c-0.4,0-1.8-0.1-2.3-1.3c0.5,0,0.9,0,1.3-0.4c0.3-0.3,0.6-0.7,0.6-1.2c0-0.9-0.8-1.1-1.1-1.1
		c-0.7,0-1.7,0.5-1.7,2c0,1.5,1.3,2.6,3.2,2.6c3.1,0,6.3-2.8,7.1-6.2L405.4,8.3"/>
	<path class="st39" d="M408.1,23.1c-0.1,0.3-0.2,0.8-0.2,0.9c0,0.5,0.4,0.7,0.7,0.7c0.4,0,0.7-0.3,0.8-0.5c0.1-0.2,0.3-0.9,0.4-1.3
		c0.1-0.4,0.3-1.4,0.5-1.9c0.1-0.5,0.3-0.9,0.4-1.4c0.2-0.9,0.3-1,0.9-1.9c0.6-0.8,1.6-2,3.2-2c1.2,0,1.3,1.1,1.3,1.5
		c0,1.3-0.9,3.6-1.3,4.5c-0.2,0.6-0.3,0.8-0.3,1.1c0,1.1,0.9,1.8,2,1.8c2.1,0,3.1-2.9,3.1-3.2c0-0.3-0.3-0.3-0.3-0.3
		c-0.3,0-0.3,0.1-0.4,0.4c-0.5,1.7-1.4,2.6-2.3,2.6c-0.4,0-0.5-0.3-0.5-0.7c0-0.5,0.1-0.8,0.5-1.7c0.3-0.7,1.1-2.9,1.1-4.1
		c0-2.1-1.6-2.4-2.8-2.4c-1.8,0-3,1.1-3.6,1.9c-0.1-1.5-1.4-1.9-2.3-1.9c-0.9,0-1.4,0.7-1.7,1.1c-0.5,0.8-0.8,2-0.8,2.1
		c0,0.3,0.3,0.3,0.4,0.3c0.3,0,0.3-0.1,0.5-0.6c0.3-1.3,0.7-2.3,1.6-2.3c0.6,0,0.7,0.5,0.7,1c0,0.4-0.2,1.2-0.3,1.8
		c-0.1,0.6-0.4,1.4-0.5,1.9L408.1,23.1"/>
</g>
<g>
	<defs>
		<rect id="SVGID_35_" x="390.3" y="6.2" width="28.8" height="20.3"/>
	</defs>
	<clipPath id="SVGID_36_">
		<use xlink:href="#SVGID_35_"  style="overflow:visible;"/>
	</clipPath>
</g>
<g>
	<defs>
		<rect id="SVGID_37_" x="36.8" y="6.2" width="24.7" height="20.1"/>
	</defs>
	<clipPath id="SVGID_38_">
		<use xlink:href="#SVGID_37_"  style="overflow:visible;"/>
	</clipPath>
	<path class="st40" d="M51.4,8.3c0.1-0.4,0.1-0.5,0.1-0.7c0-0.5-0.4-0.8-0.9-0.8c-0.3,0-0.8,0.2-1.1,0.6c-0.1,0.2-0.3,1.1-0.4,1.6
		c-0.2,0.8-0.4,1.6-0.6,2.4l-1.4,5.5c-0.1,0.5-1.4,2.6-3.4,2.6c-1.6,0-1.9-1.3-1.9-2.5c0-1.4,0.5-3.3,1.6-6C43.9,9.9,44,9.5,44,8.9
		c0-1.4-1-2.5-2.5-2.5c-2.9,0-4,4.4-4,4.7c0,0.3,0.3,0.3,0.4,0.3c0.3,0,0.3-0.1,0.5-0.5c0.8-2.9,2-3.8,3.1-3.8c0.2,0,0.8,0,0.8,1
		c0,0.8-0.3,1.6-0.5,2.1c-1.2,3.2-1.8,5-1.8,6.4c0,2.7,1.9,3.6,3.7,3.6c1.2,0,2.2-0.5,3.1-1.4c-0.4,1.6-0.8,3.1-2,4.7
		c-0.8,1-1.9,1.9-3.3,1.9c-0.4,0-1.8-0.1-2.3-1.3c0.5,0,0.9,0,1.3-0.4c0.3-0.3,0.6-0.7,0.6-1.2c0-0.9-0.8-1.1-1.1-1.1
		c-0.7,0-1.7,0.5-1.7,2c0,1.5,1.3,2.6,3.2,2.6c3.1,0,6.3-2.8,7.1-6.2L51.4,8.3"/>
	<path class="st40" d="M58.5,10.9c0-0.6,0-0.6-0.6-0.6c-1.4,1.3-3.3,1.4-4.2,1.4v0.8c0.5,0,1.9,0,3.1-0.6v10.8c0,0.7,0,1-2.1,1h-0.8
		v0.8c0.4,0,3-0.1,3.8-0.1c0.7,0,3.3,0.1,3.8,0.1v-0.8h-0.8c-2.1,0-2.1-0.3-2.1-1V10.9"/>
</g>
<g>
	<defs>
		<rect id="SVGID_39_" x="36.1" y="6.2" width="25.4" height="20.3"/>
	</defs>
	<clipPath id="SVGID_40_">
		<use xlink:href="#SVGID_39_"  style="overflow:visible;"/>
	</clipPath>
</g>
<g>
	<defs>
		<rect id="SVGID_41_" x="134.4" y="6.2" width="24.7" height="20.1"/>
	</defs>
	<clipPath id="SVGID_42_">
		<use xlink:href="#SVGID_41_"  style="overflow:visible;"/>
	</clipPath>
	<path class="st41" d="M149,8.3c0.1-0.4,0.1-0.5,0.1-0.7c0-0.5-0.4-0.8-0.9-0.8c-0.3,0-0.8,0.2-1.1,0.6c-0.1,0.2-0.3,1.1-0.4,1.6
		c-0.2,0.8-0.4,1.6-0.6,2.4l-1.4,5.5c-0.1,0.5-1.4,2.6-3.4,2.6c-1.6,0-1.9-1.3-1.9-2.5c0-1.4,0.5-3.3,1.6-6c0.5-1.2,0.6-1.6,0.6-2.2
		c0-1.4-1-2.5-2.5-2.5c-2.9,0-4,4.4-4,4.7c0,0.3,0.3,0.3,0.4,0.3c0.3,0,0.3-0.1,0.5-0.5c0.8-2.9,2-3.8,3.1-3.8c0.2,0,0.8,0,0.8,1
		c0,0.8-0.3,1.6-0.5,2.1c-1.2,3.2-1.8,5-1.8,6.4c0,2.7,1.9,3.6,3.7,3.6c1.2,0,2.2-0.5,3.1-1.4c-0.4,1.6-0.8,3.1-2,4.7
		c-0.8,1-1.9,1.9-3.3,1.9c-0.4,0-1.8-0.1-2.3-1.3c0.5,0,0.9,0,1.3-0.4c0.3-0.3,0.6-0.7,0.6-1.2c0-0.9-0.8-1.1-1.1-1.1
		c-0.7,0-1.7,0.5-1.7,2c0,1.5,1.3,2.6,3.2,2.6c3.1,0,6.3-2.8,7.1-6.2L149,8.3"/>
	<path class="st41" d="M159.7,20.6H159c-0.1,0.5-0.3,1.7-0.6,1.9c-0.2,0.1-1.8,0.1-2.1,0.1h-3.9c2.2-2,3-2.6,4.2-3.6
		c1.6-1.3,3-2.6,3-4.6c0-2.6-2.3-4.1-5-4.1c-2.6,0-4.4,1.8-4.4,3.8c0,1.1,0.9,1.2,1.1,1.2c0.5,0,1.1-0.4,1.1-1.1
		c0-0.4-0.1-1.1-1.3-1.1c0.7-1.5,2.1-2,3.1-2c2.1,0,3.2,1.7,3.2,3.4c0,1.8-1.3,3.3-2,4.1l-5.1,5c-0.2,0.2-0.2,0.2-0.2,0.8h8.7
		L159.7,20.6"/>
</g>
<g>
	<defs>
		<rect id="SVGID_43_" x="133.7" y="6.2" width="25.4" height="20.3"/>
	</defs>
	<clipPath id="SVGID_44_">
		<use xlink:href="#SVGID_43_"  style="overflow:visible;"/>
	</clipPath>
</g>
<g>
	<defs>
		<rect id="SVGID_45_" x="230.6" y="6.2" width="25.6" height="20.1"/>
	</defs>
	<clipPath id="SVGID_46_">
		<use xlink:href="#SVGID_45_"  style="overflow:visible;"/>
	</clipPath>
	<path class="st42" d="M245.2,8.3c0.1-0.4,0.1-0.5,0.1-0.7c0-0.5-0.4-0.8-0.9-0.8c-0.3,0-0.8,0.2-1.1,0.6c-0.1,0.2-0.3,1.1-0.4,1.6
		c-0.2,0.8-0.4,1.6-0.6,2.4l-1.4,5.5c-0.1,0.5-1.4,2.6-3.4,2.6c-1.6,0-1.9-1.3-1.9-2.5c0-1.4,0.5-3.3,1.6-6c0.5-1.2,0.6-1.6,0.6-2.2
		c0-1.4-1-2.5-2.5-2.5c-2.9,0-4,4.4-4,4.7c0,0.3,0.3,0.3,0.4,0.3c0.3,0,0.3-0.1,0.5-0.5c0.8-2.9,2-3.8,3.1-3.8c0.2,0,0.8,0,0.8,1
		c0,0.8-0.3,1.6-0.5,2.1c-1.2,3.2-1.8,5-1.8,6.4c0,2.7,1.9,3.6,3.7,3.6c1.2,0,2.2-0.5,3.1-1.4c-0.4,1.6-0.8,3.1-2,4.7
		c-0.8,1-1.9,1.9-3.3,1.9c-0.4,0-1.8-0.1-2.3-1.3c0.5,0,0.9,0,1.3-0.4c0.3-0.3,0.6-0.7,0.6-1.2c0-0.9-0.8-1.1-1.1-1.1
		c-0.7,0-1.7,0.5-1.7,2c0,1.5,1.3,2.6,3.2,2.6c3.1,0,6.3-2.8,7.1-6.2L245.2,8.3"/>
	<path class="st42" d="M251.1,17.3c1.7,0,2.8,1.1,2.8,3.4c0,2.6-1.5,3.4-2.8,3.4c-0.8,0-2.7-0.2-3.6-1.5c1,0,1.2-0.7,1.2-1.2
		c0-0.7-0.5-1.2-1.2-1.2c-0.6,0-1.2,0.4-1.2,1.2c0,2,2.2,3.3,4.8,3.3c3,0,5-2,5-4.1c0-1.7-1.4-3.3-3.7-3.8c2.2-0.8,3-2.4,3-3.7
		c0-1.7-1.9-2.9-4.3-2.9c-2.4,0-4.2,1.1-4.2,2.8c0,0.7,0.5,1.1,1.1,1.1c0.7,0,1.1-0.5,1.1-1.1c0-0.6-0.4-1.1-1.1-1.1
		c0.7-0.9,2.2-1.2,3-1.2c1,0,2.3,0.5,2.3,2.3c0,0.9-0.3,1.9-0.9,2.5c-0.7,0.8-1.3,0.8-2.4,0.9c-0.5,0-0.6,0-0.7,0.1
		c0,0-0.2,0-0.2,0.3c0,0.3,0.2,0.3,0.6,0.3H251.1"/>
</g>
<g>
	<defs>
		<rect id="SVGID_47_" x="229.9" y="6.2" width="26.3" height="20.3"/>
	</defs>
	<clipPath id="SVGID_48_">
		<use xlink:href="#SVGID_47_"  style="overflow:visible;"/>
	</clipPath>
</g>
<g>
	<defs>
		<rect id="SVGID_49_" x="35.2" y="68.6" width="27.5" height="22.1"/>
	</defs>
	<clipPath id="SVGID_50_">
		<use xlink:href="#SVGID_49_"  style="overflow:visible;"/>
	</clipPath>
	<path class="st43" d="M53.7,68.3c0-0.1-0.1-0.3-0.3-0.3c-0.1,0-0.1,0-0.4,0.3l-1.8,2C51,70,49.9,68.1,47,68.1
		c-5.7,0-11.5,5.6-11.5,11.6c0,4.1,2.8,7,7,7c1.1,0,2.3-0.2,3.2-0.6c1.3-0.5,1.8-1,2.2-1.6c0.2,0.6,0.9,1.6,1.2,1.6
		c0.1,0,0.2-0.1,0.2-0.1c0.1-0.1,0.3-1,0.4-1.6l0.5-2c0.1-0.4,0.2-0.9,0.3-1.3c0.3-1.2,0.3-1.2,1.8-1.2c0.1,0,0.4,0,0.4-0.5
		c0-0.2-0.1-0.3-0.3-0.3c-0.6,0-2.1,0.1-2.7,0.1c-0.8,0-2.8-0.1-3.6-0.1c-0.2,0-0.5,0-0.5,0.5c0,0.3,0.2,0.3,0.8,0.3
		c0,0,0.8,0,1.4,0.1c0.7,0.1,0.8,0.2,0.8,0.5c0,0.2-0.3,1.4-0.5,2.3c-0.7,2.8-4,3.1-4.9,3.1c-2.5,0-5.1-1.5-5.1-5.4
		c0-0.8,0.3-5,2.9-8.3c1.4-1.7,3.9-3.3,6.4-3.3c2.6,0,4.1,2,4.1,4.9c0,1-0.1,1-0.1,1.3c0,0.3,0.3,0.3,0.4,0.3c0.3,0,0.3-0.1,0.5-0.5
		L53.7,68.3"/>
	<path class="st43" d="M60.3,78.6c0-0.5,0-0.5-0.5-0.5c-1.1,1.1-2.8,1.1-3.5,1.1v0.6c0.4,0,1.6,0,2.6-0.5v9.1c0,0.6,0,0.8-1.8,0.8
		h-0.7V90c0.3,0,2.5-0.1,3.2-0.1c0.6,0,2.8,0.1,3.2,0.1v-0.6h-0.7c-1.8,0-1.8-0.2-1.8-0.8V78.6"/>
</g>
<g>
	<defs>
		<rect id="SVGID_51_" x="34.9" y="68.6" width="27.8" height="22.8"/>
	</defs>
	<clipPath id="SVGID_52_">
		<use xlink:href="#SVGID_51_"  style="overflow:visible;"/>
	</clipPath>
</g>
<g>
	<defs>
		<rect id="SVGID_53_" x="132.5" y="68.6" width="28.2" height="22.1"/>
	</defs>
	<clipPath id="SVGID_54_">
		<use xlink:href="#SVGID_53_"  style="overflow:visible;"/>
	</clipPath>
	<path class="st44" d="M151,68.3c0-0.1-0.1-0.3-0.3-0.3c-0.1,0-0.1,0-0.4,0.3l-1.8,2c-0.2-0.4-1.4-2.3-4.2-2.3
		c-5.7,0-11.5,5.6-11.5,11.6c0,4.1,2.8,7,7,7c1.1,0,2.3-0.2,3.2-0.6c1.3-0.5,1.8-1,2.2-1.6c0.2,0.6,0.9,1.6,1.2,1.6
		c0.1,0,0.2-0.1,0.2-0.1c0.1-0.1,0.3-1,0.4-1.6l0.5-2c0.1-0.4,0.2-0.9,0.3-1.3c0.3-1.2,0.3-1.2,1.8-1.2c0.1,0,0.4,0,0.4-0.5
		c0-0.2-0.1-0.3-0.3-0.3c-0.6,0-2.1,0.1-2.7,0.1c-0.8,0-2.8-0.1-3.6-0.1c-0.2,0-0.5,0-0.5,0.5c0,0.3,0.2,0.3,0.8,0.3
		c0,0,0.8,0,1.4,0.1c0.7,0.1,0.8,0.2,0.8,0.5c0,0.2-0.3,1.4-0.5,2.3c-0.7,2.8-4,3.1-4.9,3.1c-2.5,0-5.1-1.5-5.1-5.4
		c0-0.8,0.3-5,2.9-8.3c1.4-1.7,3.9-3.3,6.4-3.3c2.6,0,4.1,2,4.1,4.9c0,1-0.1,1-0.1,1.3c0,0.3,0.3,0.3,0.4,0.3c0.3,0,0.3-0.1,0.5-0.5
		L151,68.3"/>
	<path class="st44" d="M160.6,86.7H160c-0.1,0.4-0.2,1.4-0.5,1.6c-0.1,0.1-1.5,0.1-1.8,0.1h-3.3c1.9-1.7,2.5-2.2,3.6-3
		c1.3-1.1,2.6-2.2,2.6-3.9c0-2.2-1.9-3.5-4.2-3.5c-2.2,0-3.7,1.6-3.7,3.2c0,0.9,0.8,1,0.9,1c0.4,0,0.9-0.3,0.9-0.9
		c0-0.3-0.1-0.9-1.1-0.9c0.6-1.3,1.8-1.7,2.6-1.7c1.8,0,2.7,1.4,2.7,2.8c0,1.6-1.1,2.8-1.7,3.4l-4.3,4.2c-0.2,0.2-0.2,0.2-0.2,0.7
		h7.4L160.6,86.7"/>
</g>
<g>
	<defs>
		<rect id="SVGID_55_" x="132.1" y="68.6" width="28.5" height="22.8"/>
	</defs>
	<clipPath id="SVGID_56_">
		<use xlink:href="#SVGID_55_"  style="overflow:visible;"/>
	</clipPath>
</g>
<g>
	<defs>
		<rect id="SVGID_57_" x="229.1" y="68.6" width="28.2" height="22.4"/>
	</defs>
	<clipPath id="SVGID_58_">
		<use xlink:href="#SVGID_57_"  style="overflow:visible;"/>
	</clipPath>
	<path class="st45" d="M247.7,68.7c0-0.1-0.1-0.3-0.3-0.3c-0.1,0-0.1,0-0.4,0.3l-1.8,2c-0.2-0.4-1.4-2.3-4.2-2.3
		c-5.7,0-11.5,5.6-11.5,11.6c0,4.1,2.8,7,7,7c1.1,0,2.3-0.2,3.2-0.6c1.3-0.5,1.8-1,2.2-1.6c0.2,0.6,0.9,1.6,1.2,1.6
		c0.1,0,0.2-0.1,0.2-0.1c0.1-0.1,0.3-1,0.4-1.6l0.5-2c0.1-0.4,0.2-0.9,0.3-1.3c0.3-1.2,0.3-1.2,1.8-1.2c0.1,0,0.4,0,0.4-0.5
		c0-0.2-0.1-0.3-0.3-0.3c-0.6,0-2.1,0.1-2.7,0.1c-0.8,0-2.8-0.1-3.6-0.1c-0.2,0-0.5,0-0.5,0.5c0,0.3,0.2,0.3,0.8,0.3
		c0,0,0.8,0,1.4,0.1c0.7,0.1,0.8,0.2,0.8,0.5c0,0.2-0.3,1.4-0.5,2.3c-0.7,2.8-4,3.1-4.9,3.1c-2.5,0-5.1-1.5-5.1-5.4
		c0-0.8,0.3-5,2.9-8.3c1.4-1.7,3.9-3.3,6.4-3.3c2.6,0,4.1,2,4.1,4.9c0,1-0.1,1-0.1,1.3c0,0.3,0.3,0.3,0.4,0.3c0.3,0,0.3-0.1,0.5-0.5
		L247.7,68.7"/>
	<path class="st45" d="M253.1,84.4c1.4,0,2.4,1,2.4,2.9c0,2.2-1.3,2.9-2.3,2.9c-0.7,0-2.3-0.2-3-1.2c0.8,0,1-0.6,1-1
		c0-0.6-0.4-1-1-1c-0.5,0-1,0.3-1,1c0,1.7,1.9,2.8,4,2.8c2.5,0,4.2-1.7,4.2-3.4c0-1.4-1.1-2.8-3.1-3.2c1.9-0.7,2.6-2,2.6-3.1
		c0-1.4-1.6-2.5-3.6-2.5c-2,0-3.5,1-3.5,2.4c0,0.6,0.4,0.9,0.9,0.9c0.6,0,0.9-0.4,0.9-0.9c0-0.5-0.4-0.9-0.9-0.9
		c0.6-0.8,1.9-1,2.5-1c0.8,0,1.9,0.4,1.9,1.9c0,0.7-0.3,1.6-0.7,2.1c-0.6,0.7-1.1,0.7-2,0.8c-0.4,0-0.5,0-0.6,0.1c0,0-0.2,0-0.2,0.2
		c0,0.2,0.2,0.2,0.5,0.2H253.1"/>
</g>
<g>
	<defs>
		<rect id="SVGID_59_" x="228.8" y="68.6" width="28.5" height="22.8"/>
	</defs>
	<clipPath id="SVGID_60_">
		<use xlink:href="#SVGID_59_"  style="overflow:visible;"/>
	</clipPath>
</g>
<g>
	<defs>
		<rect id="SVGID_61_" x="389.6" y="68.6" width="30.8" height="22.3"/>
	</defs>
	<clipPath id="SVGID_62_">
		<use xlink:href="#SVGID_61_"  style="overflow:visible;"/>
	</clipPath>
	<path class="st46" d="M408.2,68.5c0-0.1-0.1-0.3-0.3-0.3c-0.1,0-0.1,0-0.4,0.3l-1.8,2c-0.2-0.4-1.4-2.3-4.2-2.3
		c-5.7,0-11.5,5.6-11.5,11.6c0,4.1,2.8,7,7,7c1.1,0,2.3-0.2,3.2-0.6c1.3-0.5,1.8-1,2.2-1.6c0.2,0.6,0.9,1.6,1.2,1.6
		c0.1,0,0.2-0.1,0.2-0.1c0.1-0.1,0.3-1,0.4-1.6l0.5-2c0.1-0.4,0.2-0.9,0.3-1.3c0.3-1.2,0.3-1.2,1.8-1.2c0.1,0,0.4,0,0.4-0.5
		c0-0.2-0.1-0.3-0.3-0.3c-0.6,0-2.1,0.1-2.7,0.1c-0.8,0-2.8-0.1-3.6-0.1c-0.2,0-0.5,0-0.5,0.5c0,0.3,0.2,0.3,0.8,0.3
		c0,0,0.8,0,1.4,0.1c0.7,0.1,0.8,0.2,0.8,0.5c0,0.2-0.3,1.4-0.5,2.3c-0.7,2.8-4,3.1-4.9,3.1c-2.5,0-5.1-1.5-5.1-5.4
		c0-0.8,0.3-5,2.9-8.3c1.4-1.7,3.9-3.3,6.4-3.3c2.6,0,4.1,2,4.1,4.9c0,1-0.1,1-0.1,1.3c0,0.3,0.3,0.3,0.4,0.3c0.3,0,0.3-0.1,0.5-0.5
		L408.2,68.5"/>
	<path class="st46" d="M411.1,89c-0.1,0.2-0.2,0.7-0.2,0.7c0,0.4,0.3,0.6,0.6,0.6c0.3,0,0.6-0.2,0.7-0.4c0.1-0.2,0.2-0.7,0.3-1.1
		c0.1-0.3,0.3-1.2,0.4-1.6c0.1-0.4,0.2-0.8,0.3-1.2c0.2-0.7,0.2-0.9,0.8-1.6c0.5-0.7,1.3-1.6,2.7-1.6c1,0,1.1,0.9,1.1,1.2
		c0,1.1-0.8,3.1-1.1,3.8c-0.2,0.5-0.3,0.7-0.3,1c0,0.9,0.8,1.5,1.7,1.5c1.8,0,2.6-2.5,2.6-2.7c0-0.2-0.2-0.2-0.3-0.2
		c-0.2,0-0.3,0.1-0.3,0.3c-0.4,1.4-1.2,2.2-1.9,2.2c-0.4,0-0.4-0.2-0.4-0.6c0-0.4,0.1-0.6,0.4-1.4c0.2-0.6,0.9-2.4,0.9-3.4
		c0-1.7-1.4-2-2.3-2c-1.5,0-2.5,0.9-3,1.6c-0.1-1.2-1.2-1.6-1.9-1.6c-0.8,0-1.2,0.6-1.4,1c-0.4,0.7-0.6,1.7-0.6,1.8
		c0,0.2,0.2,0.2,0.3,0.2c0.2,0,0.3-0.1,0.4-0.5c0.3-1.1,0.6-1.9,1.3-1.9c0.5,0,0.6,0.4,0.6,0.9c0,0.3-0.2,1-0.3,1.5
		c-0.1,0.5-0.3,1.2-0.4,1.6L411.1,89"/>
</g>
<g>
	<defs>
		<rect id="SVGID_63_" x="389.1" y="68.6" width="31.3" height="22.8"/>
	</defs>
	<clipPath id="SVGID_64_">
		<use xlink:href="#SVGID_63_"  style="overflow:visible;"/>
	</clipPath>
</g>
</svg>
